<?xml version="1.0" encoding="utf-8"?>
<!-- Generator: Adobe Illustrator 26.0.3, SVG Export Plug-In . SVG Version: 6.00 Build 0)  -->
<svg version="1.1" id="Layer_1" xmlns="http://www.w3.org/2000/svg" xmlns:xlink="http://www.w3.org/1999/xlink" x="0px" y="0px"
	 viewBox="0 0 410 120" style="enable-background:new 0 0 410 120;" xml:space="preserve">
<style type="text/css">
	.st0{fill:#F2F2F2;}
	.st1{opacity:0.17;}
	.st2{clip-path:url(#SVGID_00000105418879260193077360000017971135479633873073_);}
	.st3{fill:url(#SVGID_00000093165725511515894490000016159778128396328606_);}
	.st4{fill:url(#SVGID_00000175302463049619825040000014033477938546057637_);}
	.st5{fill:url(#SVGID_00000139992800812810668300000002740489097478334903_);}
	.st6{fill:url(#SVGID_00000125568109412322532830000015937779185675251891_);}
	.st7{fill:url(#SVGID_00000072995713370272611060000012911355025262263968_);}
	.st8{fill:url(#SVGID_00000103982232921767187150000004345520504211077767_);}
	.st9{fill:none;}
	.st10{fill:#606060;}
	.st11{clip-path:url(#SVGID_00000057114401895755475130000011458839068545959838_);}
	.st12{clip-path:url(#SVGID_00000023972181061317308830000001457464595228369280_);}
	.st13{fill:url(#SVGID_00000121239502925332448560000015342069894217328272_);}
	.st14{fill:url(#SVGID_00000145057309589338496490000006046935346668731320_);}
	.st15{fill:url(#SVGID_00000146474702826922659970000004204244404884585111_);}
	.st16{fill:#006837;}
	.st17{fill:none;stroke:#FFFFFF;stroke-width:0.75;stroke-miterlimit:10;}
	.st18{fill:none;stroke:#000000;stroke-miterlimit:10;}
	.st19{fill:#E8E8E8;}
	.st20{fill:#BC2328;}
	.st21{opacity:0.58;}
	.st22{fill:#39B54A;}
	.st23{fill:#006838;}
	.st24{fill:#066735;}
	.st25{fill:#0F7C82;}
	.st26{fill:#54514D;}
	.st27{fill:#58595B;}
	.st28{clip-path:url(#SVGID_00000166674873103201921950000004535086653942498964_);}
	.st29{clip-path:url(#SVGID_00000164515506261873897730000011544634720190444730_);}
	.st30{fill:url(#SVGID_00000145022469206053609040000017450208210062548363_);}
	.st31{fill:url(#SVGID_00000071560052142679063240000013177138754278446733_);}
	.st32{fill:url(#SVGID_00000047738400026368344050000015429502200530975377_);}
</style>
<g>
	<defs>
		<rect id="SVGID_00000105414403572202703650000007250707805909960124_" x="-1165.8" y="-1543.8" width="1927.3" height="1080"/>
	</defs>
	<clipPath id="SVGID_00000129888067863691931570000010837485098872027577_">
		<use xlink:href="#SVGID_00000105414403572202703650000007250707805909960124_"  style="overflow:visible;"/>
	</clipPath>
	
		<g id="xdVPBZ_00000168099174790046155890000010962681722348294785_" style="clip-path:url(#SVGID_00000129888067863691931570000010837485098872027577_);">
		
			<image style="overflow:visible;" width="3072" height="3072" id="xdVPBZ_00000083779722609055976250000014119796648566821302_" xlink:href="132F6402.jpg"  transform="matrix(1 0 0 1 -1834.4272 -2091.0618)">
		</image>
	</g>
</g>
<g>
	<defs>
		<rect id="SVGID_00000183220469088138326530000011987420510337519232_" x="-1165.8" y="-1539.4" width="1927.3" height="1080"/>
	</defs>
	<clipPath id="SVGID_00000089575902852879183880000015807683923927208866_">
		<use xlink:href="#SVGID_00000183220469088138326530000011987420510337519232_"  style="overflow:visible;"/>
	</clipPath>
	<g style="clip-path:url(#SVGID_00000089575902852879183880000015807683923927208866_);">
		
			<linearGradient id="SVGID_00000144323613128203932960000002992465131398164904_" gradientUnits="userSpaceOnUse" x1="-225.2386" y1="-430.4097" x2="697.4722" y2="-430.4097">
			<stop  offset="5.192782e-07" style="stop-color:#D9E021"/>
			<stop  offset="2.585238e-02" style="stop-color:#CBE230"/>
			<stop  offset="0.1203" style="stop-color:#9CE960"/>
			<stop  offset="0.2201" style="stop-color:#72EF8B"/>
			<stop  offset="0.3235" style="stop-color:#4FF4AF"/>
			<stop  offset="0.4316" style="stop-color:#32F8CC"/>
			<stop  offset="0.546" style="stop-color:#1CFBE2"/>
			<stop  offset="0.6694" style="stop-color:#0CFDF3"/>
			<stop  offset="0.8085" style="stop-color:#03FFFC"/>
			<stop  offset="0.996" style="stop-color:#00FFFF"/>
		</linearGradient>
		<path style="fill:url(#SVGID_00000144323613128203932960000002992465131398164904_);" d="M697.5,77.3V-963.6
			c0-2.8-0.2-5.4-0.4-8.2c-0.2-5-0.2-9.8-0.7-14.7c-0.6-6.5-1.5-12.8-2.6-19.1c-0.2-1.1-0.2-2.2-0.4-3.2
			c-5.9-33.8-18.6-65.2-36.2-93.1c-2.4-3.7-5-7.4-7.6-11.1c-18.9-26.6-42.7-49.4-70-67.1c-3-2-6.1-3.9-9.3-5.8
			c-5.4-3.2-11.1-6.3-16.9-9.1c-14.5-7.2-29.7-13-45.7-17.3c-21.5-5.9-44.4-9.1-67.8-9.1c-7.8,0-15.6,0.4-23.2,1.1
			c-26,2.2-50.7,8.5-73.7,17.8c-27.5,11.3-52.6,27.1-74.5,46.6l-1.9,0.7l-8.9,9.1c-0.2,0.2-11,10.8-11,10.8l-39.9,39.9l-23,23.2
			L-46.9-841.5c0,0.9,0.2,1.9,0.2,2.8c1.1,12.3,1.9,24.7,2.4,37.2c0.7,15.4,1.1,30.8,1.1,46.4c0,79.1-9.3,156-27.1,229.8
			c-3.2,13.7-6.7,27.5-10.6,41.1c-8.5,29.7-18.4,59.1-29.7,87.7c0,0-0.1,0.2,0,0.2c7.2,1.1,14.3,2.2,21.5,3.5
			c2.4,0.4,4.6,0.9,7.1,1.3c67.6,10.4,134.8,26.3,201.2,42.9c61.9,15.4,124.6,35.8,174.9,76.4c11.5,9.3,22.3,20.1,31.6,31.6
			c28.2,35.3,45.3,80.1,45.3,128.7c0,113.5-104.8,203.3-184.8,269.2C68.9,253.6-71.2,323.4-224.9,357.5c0,1-0.3,1.9-0.3,2.9h667.1
			c115.9,0,209.9-78.3,245-182.8C697,147.5,697.4,123.7,697.5,77.3z"/>
	</g>
</g>
<g>
	<path class="st24" d="M80.9,72.9V39.5c0-0.1,0-0.2,0-0.3s0-0.3,0-0.5c0-0.2,0-0.4-0.1-0.6c0,0,0-0.1,0-0.1c-0.2-1.1-0.6-2.1-1.2-3
		c-0.1-0.1-0.2-0.2-0.2-0.4c-0.6-0.9-1.4-1.6-2.3-2.2c-0.1-0.1-0.2-0.1-0.3-0.2s-0.4-0.2-0.5-0.3c-0.5-0.2-1-0.4-1.5-0.6
		c-0.7-0.2-1.4-0.3-2.2-0.3c-0.2,0-0.5,0-0.7,0c-0.8,0.1-1.6,0.3-2.4,0.6c-0.9,0.4-1.7,0.9-2.4,1.5l-0.1,0l-0.3,0.3L66.5,34
		l-1.3,1.3L64.4,36L57,43.4c0,0,0,0.1,0,0.1c0,0.4,0.1,0.8,0.1,1.2c0,0.5,0,1,0,1.5c0,2.5-0.3,5-0.9,7.4c-0.1,0.4-0.2,0.9-0.3,1.3
		c-0.3,1-0.6,1.9-1,2.8l0,0l0.7,0.1l0.2,0c2.2,0.3,4.3,0.8,6.5,1.4c2,0.5,4,1.1,5.6,2.5c0.4,0.3,0.7,0.6,1,1
		c0.9,1.2,1.5,2.6,1.5,4.1c0,3.6-3.4,6.5-5.9,8.6c-3.8,3.2-8.4,5.4-13.2,6.4c0,0,0,0.1,0,0.1h21.4c3.6-0.1,6.8-2.4,7.9-5.9
		C80.9,75.2,80.9,74.4,80.9,72.9z"/>
	<path class="st24" d="M54.1,46.2c0,2.5-0.4,5.1-1.3,7.5c-1.7,4.3-4.9,7.8-9.1,9.9c0,0-0.2,0.1-0.1,0c0.9-0.9,4-7.9-3-19.9
		c-4.7-8.1-8.3-18.6-3.5-27c2-3.5,5-6.2,8.7-7.9c0.1,0,0.1,0,0,0.1c-0.5,0.7-0.9,2.9-1,3.5c-0.6,2.9-0.7,7.5,4.5,17.3
		C52,34.7,54.1,40.3,54.1,46.2z"/>
	<path class="st24" d="M37.6,82c-3.6-0.8-7-2.2-10.1-4.2c-2.9-1.8-5.9-4.2-7.8-7.1c-0.7-1-1.1-2.1-1.3-3.3c0-0.2,0-0.4,0-0.5
		c0-1.8,0.8-3.6,2.1-4.8c0.6-0.5,1.2-0.9,1.8-1.2c2.2-0.9,4.4-1.6,6.7-2.1c2.3-0.5,4.7-1,7.1-1.3c0.2,0,1.3-0.3,1.4-0.2l3.5,3.5
		c1.7-3.5,1.2-7.6-1.4-10.5l-1.3-1.3L26.6,37.3l-3.2-3.2c-0.1-0.1-0.2-0.2-0.3-0.3l-0.3-0.3c-0.1-0.1-0.2-0.2-0.3-0.3L22.4,33
		l-0.2-0.2l-0.1-0.1L22,32.7c0,0-0.1-0.1-0.1-0.1c-0.1-0.1-0.2-0.1-0.3-0.2l-0.1-0.1c-0.1-0.1-0.3-0.2-0.4-0.2L21,32.1
		c-0.5-0.3-1-0.5-1.5-0.6c-0.3-0.1-0.7-0.2-1-0.2c-0.4-0.1-0.9-0.1-1.3-0.1c-4.3,0-7.8,3.2-8.3,7.5c0,0.3,0,0.6-0.1,0.8v34.3
		c0,0.3,0,0.6,0.1,1c0.3,2.4,1.6,4.6,3.6,5.9c0.2,0.1,0.4,0.3,0.6,0.4c0.7,0.4,1.5,0.7,2.3,0.8h0.1c0.1,0,0.2,0,0.3,0.1
		C16.2,82,16.6,82,17,82L37.6,82C37.6,82,37.6,82,37.6,82z"/>
	<path class="st24" d="M10.7,97.5l-0.8,2.3H8.8l2.8-7.5h1.1l2.8,7.5h-1.2l-0.8-2.3H10.7z M12.1,93.4L11,96.6h2.2L12.1,93.4z"/>
	<path class="st24" d="M16.2,92.2h1v2.7c0.4-0.5,1.1-0.8,1.7-0.8c1.4,0,2.3,1.1,2.3,2.8s-0.9,2.9-2.4,2.9c-0.7,0-1.3-0.3-1.7-0.8
		v0.6h-1V92.2z M17.2,97c0,1.3,0.5,2,1.5,2c1,0,1.5-0.7,1.5-2s-0.6-2-1.5-2C17.8,95,17.2,95.8,17.2,97L17.2,97z"/>
	<path class="st24" d="M23.3,99.8h-1v-7.5h1V99.8z"/>
	<path class="st24" d="M25.4,97.3C25.5,98.4,26,99,27,99c0.6,0,1.2-0.4,1.3-0.9h1c-0.2,1.1-1.2,1.9-2.3,1.8c-1.5,0-2.6-1.2-2.6-2.9
		c0-1.7,1-2.9,2.6-2.9c1,0,1.9,0.6,2.2,1.6c0.2,0.5,0.2,1,0.2,1.5L25.4,97.3z M28.3,96.5c0-1-0.5-1.5-1.4-1.5
		c-0.8,0-1.5,0.7-1.5,1.5c0,0,0,0,0,0H28.3z"/>
	<path class="st24" d="M31.5,99.8h-1.2v-1.1h1.2V99.8z"/>
	<path class="st24" d="M38.7,99.8h-1.1v-6.6h-2.3v-0.9h5.8v0.9h-2.3V99.8z"/>
	<path class="st24" d="M42,94.3v0.9c0.1-0.2,0.3-0.4,0.5-0.6c0.3-0.3,0.6-0.4,1-0.4c0.2,0,0.4,0,0.6,0.1v0.9c-0.2,0-0.3-0.1-0.5-0.1
		c-0.9,0.1-1.5,0.8-1.5,1.7c0,0,0,0,0,0v2.9h-1v-5.4H42z"/>
	<path class="st24" d="M44.6,96.1c0-0.5,0.1-1,0.4-1.3c0.5-0.4,1.1-0.7,1.8-0.6c1.4,0,2.1,0.6,2.1,1.8v2.6c0,0.4,0.1,0.5,0.3,0.5
		c0.1,0,0.2,0,0.3-0.1v0.8c-0.2,0.1-0.4,0.1-0.7,0.1c-0.5,0-0.7-0.2-0.8-0.7c-0.5,0.5-1.2,0.8-1.9,0.8c-0.9,0.1-1.7-0.6-1.8-1.4
		c0-0.1,0-0.1,0-0.2c0-0.9,0.5-1.4,1.6-1.6l1.2-0.2c0.7-0.1,0.8-0.2,0.8-0.6c0-0.5-0.5-0.9-1.2-0.9c-0.4-0.1-0.8,0.1-1.1,0.5
		c-0.1,0.2-0.1,0.4-0.1,0.7L44.6,96.1z M48,97c-0.2,0.1-0.4,0.2-0.6,0.2l-1.1,0.2c-0.6,0.1-0.9,0.4-0.9,0.8c0,0.4,0.4,0.8,1,0.8
		c0.8,0.1,1.5-0.6,1.6-1.4c0,0,0,0,0,0L48,97z"/>
	<path class="st24" d="M51.3,94.3v0.6c0.4-0.5,1.1-0.8,1.7-0.8c0.6,0,1.1,0.2,1.5,0.6c0.3,0.4,0.4,0.9,0.4,1.4v3.6h-1v-3.6
		c0-0.7-0.3-1.1-1-1.1c-0.7-0.1-1.3,0.4-1.4,1.1c0,0.1,0,0.1,0,0.2v3.3h-1v-5.4H51.3z"/>
	<path class="st24" d="M59.3,96c-0.1-0.6-0.6-1-1.2-1c0,0,0,0,0,0c-0.6,0-1,0.3-1,0.6c0,0.3,0.2,0.5,0.6,0.6l1.3,0.3
		c1.1,0.3,1.6,0.8,1.6,1.6c0,1.1-0.9,1.7-2.3,1.7c-1.5,0-2.4-0.7-2.5-2h1c0.1,0.7,0.6,1.1,1.5,1.1c0.7,0,1.2-0.3,1.2-0.8
		c0-0.4-0.2-0.6-0.9-0.7l-1.1-0.3c-0.4-0.1-0.8-0.2-1.1-0.5c-0.3-0.2-0.4-0.6-0.4-0.9c0-0.9,0.9-1.6,2.1-1.6c0.7,0,1.3,0.2,1.8,0.7
		c0.2,0.3,0.4,0.7,0.4,1.1L59.3,96z"/>
	<path class="st24" d="M63.5,95.1h-1v4.6h-1v-4.6h-0.8v-0.8h0.8v-0.9c0-0.9,0.4-1.3,1.4-1.3c0.2,0,0.4,0,0.6,0.1V93
		c-0.1,0-0.3,0-0.4,0c-0.5,0-0.6,0.1-0.6,0.7v0.6h1V95.1z"/>
	<path class="st24" d="M69,97.1c0,1.7-1.1,2.8-2.6,2.8c-1.6,0-2.6-1.2-2.6-2.9s1.1-2.9,2.6-2.9C67.9,94.2,69,95.3,69,97.1z M64.8,97
		c0,1.3,0.6,2,1.6,2c1,0,1.6-0.7,1.6-2s-0.6-2-1.6-2C65.4,95.1,64.8,95.8,64.8,97L64.8,97z"/>
	<path class="st24" d="M71,94.3v0.9c0.1-0.2,0.3-0.4,0.5-0.6c0.3-0.3,0.6-0.4,1-0.4c0.2,0,0.4,0,0.6,0.1v0.9c-0.2,0-0.3-0.1-0.5-0.1
		c-0.9,0.1-1.5,0.8-1.5,1.7c0,0,0,0,0,0v2.9h-1v-5.4H71z"/>
	<path class="st24" d="M74.7,94.3V95c0.3-0.5,0.9-0.9,1.5-0.8c0.6-0.1,1.2,0.3,1.4,0.9c0.3-0.6,1-1,1.6-0.9c0.5,0,1,0.2,1.3,0.6
		c0.3,0.4,0.4,0.9,0.3,1.3v3.7h-1v-3.6c0-0.7-0.3-1-0.9-1c-0.7,0-1.1,0.5-1.1,1.4v3.3h-1V96c0.1-0.5-0.2-0.9-0.7-1
		c-0.1,0-0.1,0-0.2,0c-0.6,0-1.2,0.5-1.2,1.1c0,0,0,0.1,0,0.1v3.4h-1v-5.4H74.7z"/>
	<path class="st24" d="M137.7,40.9l-13.2,19.1l-12.9-19.1h-7.1v41.1h6.6V50.7l13.1,18.8l13.7-19v31.3h6.8v-41H137.7z"/>
	<path class="st24" d="M173.6,52.8c-2.4-1.6-5.2-2.4-8.6-2.4c-2.3,0-4.6,0.2-6.8,0.7c-1.8,0.3-3.5,0.9-5,1.8v6
		c1.3-1.1,2.9-1.9,4.5-2.3c1.8-0.5,3.6-0.8,5.4-0.8c5.1,0,7.6,2.1,7.6,6.3v3c-2.5-1.5-5.5-2.2-9.2-2.2c-3.6,0-6.3,0.8-8.3,2.5
		c-1.9,1.7-2.9,4.2-2.9,7.6c0,3.6,1.2,6.1,3.6,7.6c2.4,1.5,5.4,2.3,9,2.3c4.6,0,8.1-0.5,10.5-1.6c2.5-1.1,3.7-3,3.7-5.8V60.6
		C177.1,57,175.9,54.4,173.6,52.8z M170.6,75c0.1,1-0.6,2-1.6,2.2c-1.1,0.4-2.9,0.5-5.5,0.5c-1.7,0-3.4-0.4-4.9-1.3
		c-1.4-0.8-2.1-2.3-2.1-3.9c-0.1-1.5,0.6-2.9,1.8-3.7c1.2-0.8,3-1.2,5.3-1.2c2.4,0,4.7,0.4,6.9,1.4V75z"/>
	<path class="st24" d="M199.3,50.3c-3.2,0-6.3,0.9-9.1,2.5V38h-6.5v44h6.4l0.1-24c2.2-1.3,4.7-2,7.3-2c2.3,0,4.1,0.7,5.3,2
		c1.2,1.3,1.8,3.2,1.8,5.7v18.3h6.5V62.8C211,54.5,207.1,50.3,199.3,50.3z"/>
	<path class="st24" d="M239.6,52.8c-2.4-1.6-5.2-2.4-8.6-2.4c-2.3,0-4.6,0.2-6.8,0.7c-1.8,0.3-3.5,0.9-5,1.8v6
		c1.3-1.1,2.9-1.9,4.5-2.3c1.8-0.5,3.6-0.8,5.4-0.8c5,0,7.6,2.1,7.6,6.3v3c-2.5-1.5-5.5-2.2-9.2-2.2c-3.6,0-6.3,0.8-8.3,2.5
		c-1.9,1.7-2.9,4.2-2.9,7.6c0,3.6,1.2,6.1,3.6,7.6c2.4,1.5,5.4,2.3,9,2.3c4.6,0,8.1-0.5,10.5-1.6c2.5-1.1,3.7-3,3.7-5.8V60.6
		C243.1,57,242,54.4,239.6,52.8z M236.7,75c0.1,1-0.6,2-1.6,2.2c-1.1,0.4-2.9,0.5-5.5,0.5c-1.7,0-3.4-0.4-4.9-1.3
		c-1.3-0.8-2.1-2.3-2.1-3.9c-0.1-1.5,0.6-2.9,1.8-3.7c1.2-0.8,3-1.2,5.3-1.2c2.4,0,4.7,0.4,6.9,1.4V75z"/>
	<path class="st24" d="M269.6,68.1c-0.8-1.1-1.9-2-3.2-2.6c-1.6-0.7-3.2-1.2-4.9-1.7c-1.7-0.4-3.3-1-4.8-1.8c-1-0.6-1.6-1.7-1.5-2.9
		c0-1.1,0.6-2.1,1.5-2.6c1.2-0.7,2.6-1,4.1-0.9c1.3,0,2.7,0.2,3.9,0.6c1.7,0.7,3.3,1.4,4.8,2.3V53c-1.4-0.7-2.9-1.4-4.4-1.9
		c-1.6-0.5-3.3-0.7-5-0.7c-1.9,0-3.8,0.3-5.5,1c-1.7,0.6-3.2,1.7-4.4,3.1c-1.2,1.6-1.8,3.5-1.7,5.4c0,2.8,0.9,4.8,2.6,6.2
		c1.7,1.3,4,2.3,6.9,3l1.4,0.5c1.3,0.4,2.6,1,3.9,1.7c0.8,0.5,1.3,1.5,1.2,2.5c0,1.1-0.6,2.2-1.5,2.8c-1,0.7-2.4,1.1-4.2,1.1
		c-1.7,0-3.5-0.3-5.1-0.8c-1.8-0.7-3.5-1.5-5-2.6v6.1c1.6,0.8,3.2,1.4,4.8,1.8c1.7,0.4,3.5,0.7,5.3,0.6c3.4,0,6.3-0.8,8.6-2.4
		s3.6-4.1,3.6-7.3C271,71,270.5,69.3,269.6,68.1z"/>
	<path class="st24" d="M298,52.8c-2.4-1.6-5.2-2.4-8.6-2.4c-2.3,0-4.6,0.2-6.8,0.7c-1.8,0.3-3.5,0.9-5,1.8v6
		c1.3-1.1,2.9-1.9,4.5-2.3c1.8-0.5,3.6-0.8,5.4-0.8c5.1,0,7.6,2.1,7.6,6.3v3c-2.5-1.5-5.5-2.2-9.2-2.2c-3.6,0-6.3,0.8-8.3,2.5
		c-1.9,1.7-2.9,4.2-2.9,7.6c0,3.6,1.2,6.1,3.6,7.6c2.4,1.5,5.4,2.3,9,2.3c4.6,0,8.1-0.5,10.5-1.6c2.5-1.1,3.7-3,3.7-5.8V60.6
		C301.5,57,300.4,54.4,298,52.8z M295.1,75c0.1,1-0.6,2-1.6,2.2c-1.1,0.4-2.9,0.5-5.5,0.5c-1.7,0-3.4-0.4-4.9-1.3
		c-1.4-0.8-2.1-2.3-2.1-3.9c-0.1-1.5,0.6-2.9,1.8-3.7c1.2-0.8,3-1.2,5.3-1.2c2.4,0,4.7,0.4,6.9,1.4V75z"/>
	<path class="st24" d="M319.8,64.4l14-13.4h-7.9l-11.3,11.6l0.1-23.3h-6.5v42.6h6.4V68.1L327,81.9h8.4L319.8,64.4z"/>
	<path class="st24" d="M355.3,56.4V51h-7.5v-8.6h-6.6V51h-5v5.3h5V74c0,2.8,0.8,4.9,2.4,6.5c1.6,1.5,3.8,2.3,6.6,2.3
		c1.8,0,3.5-0.3,5.1-1V76c-0.6,0.3-1.2,0.6-1.8,0.7c-0.7,0.2-1.4,0.3-2.1,0.3c-1.4,0-2.3-0.3-2.8-1c-0.5-0.7-0.8-1.8-0.8-3.3V56.4
		H355.3z"/>
	<path class="st24" d="M376,50.3c-3.2,0-6.3,0.9-9.1,2.5V38h-6.5v44h6.4l0.1-24c2.2-1.3,4.7-2,7.3-2c2.3,0,4.1,0.7,5.3,2
		c1.2,1.3,1.8,3.2,1.8,5.7v18.3h6.5V62.8C387.7,54.5,383.8,50.3,376,50.3z"/>
	<path class="st24" d="M401,51.2h-6.5v30.7h6.5L401,51.2z M394.3,40.2v5.9h6.9v-5.9L394.3,40.2z"/>
	<path class="st24" d="M206.3,110.8V92.6h8.6c1.9,0,3.3,0.4,4.3,1.2c1,0.8,1.5,2.1,1.5,3.4c0,0.8-0.2,1.6-0.5,2.3
		c-0.4,0.6-0.9,1.1-1.6,1.4c0.9,0.3,1.6,0.9,2.1,1.6c0.5,0.8,0.7,1.7,0.7,2.7c0,1.8-0.6,3.1-1.7,4.1c-1.2,1-2.8,1.4-4.9,1.4
		L206.3,110.8z M209.9,99.6h4.3c0.7,0,1.4-0.1,2-0.5c0.5-0.4,0.7-0.9,0.6-1.5c0-0.6-0.2-1.1-0.6-1.5c-0.6-0.4-1.4-0.5-2.1-0.5h-4.3
		L209.9,99.6z M209.9,107.5h4.4c0.8,0.1,1.6-0.1,2.3-0.6c0.5-0.5,0.8-1.1,0.7-1.8c0.1-0.7-0.2-1.4-0.7-1.8c-0.7-0.4-1.5-0.6-2.3-0.6
		h-4.4L209.9,107.5z"/>
	<path class="st24" d="M225.8,110.8V92.6h3.7v18.2L225.8,110.8z"/>
	<path class="st24" d="M234.1,101.7c0-2.9,0.8-5.3,2.4-7c1.6-1.7,3.8-2.6,6.5-2.6c2.7,0,4.9,0.9,6.5,2.6c1.6,1.7,2.4,4.1,2.4,7
		c0,2.9-0.8,5.3-2.4,7c-1.6,1.7-3.8,2.6-6.5,2.6c-2.7,0-4.9-0.9-6.5-2.6C234.9,107,234.1,104.6,234.1,101.7z M238,101.7
		c0,2,0.4,3.6,1.3,4.7c0.9,1.1,2.3,1.7,3.7,1.7c1.4,0.1,2.8-0.5,3.8-1.7c0.9-1.1,1.3-2.7,1.3-4.7c0-2-0.5-3.6-1.3-4.7
		c-0.9-1.1-2.3-1.7-3.8-1.7c-1.4-0.1-2.8,0.5-3.7,1.7C238.4,98.1,238,99.7,238,101.7z"/>
	<path class="st24" d="M255.8,105.7v-3.4h6.9v3.4H255.8z"/>
	<path class="st24" d="M266.9,110.8V92.6h13.2v3.2h-9.5v3.9h8.7v3.1h-8.7v4.7h10v3.4L266.9,110.8z"/>
	<path class="st24" d="M284.9,110.8V92.6h3.9l7.4,12.5V92.6h3.7v18.2H296l-7.4-12.5v12.5L284.9,110.8z"/>
	<path class="st24" d="M305.2,110.8V92.6h13.2v3.2h-9.5v3.9h8.7v3.1h-8.7v4.7h10v3.4L305.2,110.8z"/>
	<path class="st24" d="M323.2,110.8V92.6h8.8c2,0,3.5,0.4,4.4,1.3c1,0.9,1.4,2.1,1.4,3.9c0,1-0.2,1.9-0.7,2.8
		c-0.5,0.7-1.2,1.3-2,1.5c0.7,0.2,1.3,0.7,1.7,1.3c0.4,0.8,0.6,1.8,0.6,2.7l0.1,2.2v0.1c0,1.1,0.3,1.7,0.7,2v0.6h-4.1
		c-0.1-0.3-0.2-0.6-0.3-0.9c-0.1-0.4-0.1-0.9-0.1-1.3l-0.1-1.9c0-1.1-0.3-1.9-0.6-2.3s-1.1-0.6-2.1-0.6h-4v7.1H323.2z M327,100.5
		h4.4c0.7,0.1,1.5-0.1,2.1-0.6c0.5-0.5,0.7-1.1,0.7-1.8c0-0.7-0.2-1.3-0.7-1.8c-0.5-0.4-1.2-0.7-2-0.6H327V100.5z"/>
	<path class="st24" d="M358.7,104.5c-0.1,1.9-0.9,3.7-2.4,4.9c-1.5,1.2-3.4,1.8-5.7,1.8c-2.7,0-4.8-0.8-6.3-2.5
		c-1.5-1.7-2.2-4-2.2-7.1c0-3.1,0.8-5.5,2.3-7.1c1.5-1.6,3.7-2.5,6.6-2.5c2.3,0,4.2,0.6,5.5,1.7c1.3,1.1,2.1,2.7,2.2,4.8h-3.7
		c-0.1-0.9-0.5-1.8-1.3-2.4c-0.8-0.6-1.8-0.9-2.8-0.8c-1.6,0-2.9,0.5-3.8,1.6c-0.9,1.1-1.3,2.6-1.3,4.7c0,2,0.4,3.5,1.3,4.6
		c1.7,1.8,4.4,2.2,6.4,0.7c0.8-0.6,1.3-1.5,1.4-2.5L358.7,104.5z"/>
	<path class="st24" d="M384.7,110.8V92.6h3.9l7.4,12.5V92.6h3.7v18.2h-3.9l-7.4-12.5v12.5L384.7,110.8z"/>
	<path class="st24" d="M372.2,110.8c8-2.5,6.1-10.4,6-10.9c-0.1-0.3-0.2,2.8-2.4,3c0.4-1.8-1.1-3.8-2.2-4.5c-2-1.1-2.7-2.7-2.6-3.3
		l0-0.1l0,0.1c-0.7,1.9-1.4,4.2-0.6,5.9c0.5,1.1,1.3,2.1,1.2,3.4s-0.4,3-1.8,2.8c-1.1-0.2-1.9-1.5-2.2-2.4c-0.3-0.8-0.4-1.7-0.3-2.6
		l0,0c0,0-0.1,0.1-0.1,0.1c-0.6,1.2-0.8,2.5-0.6,3.9c0.2,1.5,0.8,2.9,1.6,4.1c-1-0.3-1.8-0.8-2.6-1.4c-0.9-0.8-1.7-1.9-2.2-3
		c-2.5-5.3-0.1-11.9,5.9-13.5c2.2-0.6,1.4-2.5,1.1-3.6c0,0.1,1.4,0.6,1.6,0.7c1.3,0.7,2.5,1.5,3.7,2.4c3.8,2.7,5.5,6.4,5.3,10.3
		C380.6,106.5,376.8,110.8,372.2,110.8z"/>
</g>
</svg>
