<?xml version="1.0" encoding="utf-8"?>
<!-- Generator: Adobe Illustrator 26.0.3, SVG Export Plug-In . SVG Version: 6.00 Build 0)  -->
<svg version="1.1" id="Layer_1" xmlns="http://www.w3.org/2000/svg" xmlns:xlink="http://www.w3.org/1999/xlink" x="0px" y="0px"
	 viewBox="0 0 410 120" style="enable-background:new 0 0 410 120;" xml:space="preserve">
<style type="text/css">
	.st0{fill:#F2F2F2;}
	.st1{opacity:0.17;}
	.st2{clip-path:url(#SVGID_00000096034755975701758210000000009323317569381771_);}
	.st3{fill:url(#SVGID_00000041269301651360856130000000285612447142244504_);}
	.st4{fill:url(#SVGID_00000080186020966709993970000015109486826536519092_);}
	.st5{fill:url(#SVGID_00000173859192536025340970000017594036890226442687_);}
	.st6{fill:url(#SVGID_00000076569232596350524030000007444289666051966905_);}
	.st7{fill:url(#SVGID_00000101087441723908074050000007771889753204690331_);}
	.st8{fill:url(#SVGID_00000113350138087720849780000003164766537411768208_);}
	.st9{fill:none;}
	.st10{fill:#606060;}
	.st11{clip-path:url(#SVGID_00000050630963712569441590000018433692399296351668_);}
	.st12{clip-path:url(#SVGID_00000159428318914762115550000017648906927876932016_);}
	.st13{fill:url(#SVGID_00000086650694738669886580000010355214947967006898_);}
	.st14{fill:url(#SVGID_00000016056397251229319130000002708710913034908046_);}
	.st15{fill:url(#SVGID_00000082340854890190603710000017899129214669942184_);}
	.st16{fill:#006837;}
	.st17{fill:none;stroke:#FFFFFF;stroke-width:0.75;stroke-miterlimit:10;}
	.st18{fill:none;stroke:#000000;stroke-miterlimit:10;}
	.st19{fill:#E8E8E8;}
	.st20{fill:#BC2328;}
	.st21{opacity:0.58;}
	.st22{fill:#39B54A;}
	.st23{fill:#006838;}
	.st24{fill:#066735;}
	.st25{fill:#0F7C82;}
	.st26{fill:#54514D;}
	.st27{fill:#58595B;}
	.st28{clip-path:url(#SVGID_00000087413620613568670180000002838691908530542776_);}
	.st29{clip-path:url(#SVGID_00000158728692509895774870000004851170820981968527_);}
	.st30{fill:url(#SVGID_00000132062568362419598090000000130653424292550310_);}
	.st31{fill:url(#SVGID_00000048501194865010300400000004993801608576508824_);}
	.st32{fill:url(#SVGID_00000049933915718316055740000008189551056227643526_);}
</style>
<g>
	<defs>
		<rect id="SVGID_00000054982303721260968130000005534514215372582279_" x="984.2" y="-1673.4" width="1927.3" height="1080"/>
	</defs>
	<clipPath id="SVGID_00000039813788678182358320000007978346798674587019_">
		<use xlink:href="#SVGID_00000054982303721260968130000005534514215372582279_"  style="overflow:visible;"/>
	</clipPath>
	
		<g id="xdVPBZ_00000174565765825341917820000001470463389707039662_" style="clip-path:url(#SVGID_00000039813788678182358320000007978346798674587019_);">
		
			<image style="overflow:visible;" width="3072" height="3072" id="xdVPBZ_00000107546720619016729790000003524001447026964920_" xlink:href="C134EDE9.jpg"  transform="matrix(1 0 0 1 315.5933 -2220.5825)">
		</image>
	</g>
</g>
<g>
	<defs>
		<rect id="SVGID_00000105414403572202703650000007250707805909960124_" x="-1780.2" y="-1543.8" width="1927.3" height="1080"/>
	</defs>
	<clipPath id="SVGID_00000011724499932517206750000015386422232090459070_">
		<use xlink:href="#SVGID_00000105414403572202703650000007250707805909960124_"  style="overflow:visible;"/>
	</clipPath>
	
		<g id="xdVPBZ_00000168099174790046155890000010962681722348294785_" style="clip-path:url(#SVGID_00000011724499932517206750000015386422232090459070_);">
		
			<image style="overflow:visible;" width="3072" height="3072" id="xdVPBZ_00000083779722609055976250000014119796648566821302_" xlink:href="C134EDEB.jpg"  transform="matrix(1 0 0 1 -2448.8318 -2091.0618)">
		</image>
	</g>
</g>
<g>
	<defs>
		<rect id="SVGID_00000183220469088138326530000011987420510337519232_" x="-1780.2" y="-1539.4" width="1927.3" height="1080"/>
	</defs>
	<clipPath id="SVGID_00000044882807755217952740000017048238346046476180_">
		<use xlink:href="#SVGID_00000183220469088138326530000011987420510337519232_"  style="overflow:visible;"/>
	</clipPath>
	<g style="clip-path:url(#SVGID_00000044882807755217952740000017048238346046476180_);">
		
			<linearGradient id="SVGID_00000080909097412080657850000016694639678657259417_" gradientUnits="userSpaceOnUse" x1="-839.6432" y1="-430.4097" x2="83.0677" y2="-430.4097">
			<stop  offset="5.192782e-07" style="stop-color:#D9E021"/>
			<stop  offset="2.585238e-02" style="stop-color:#CBE230"/>
			<stop  offset="0.1203" style="stop-color:#9CE960"/>
			<stop  offset="0.2201" style="stop-color:#72EF8B"/>
			<stop  offset="0.3235" style="stop-color:#4FF4AF"/>
			<stop  offset="0.4316" style="stop-color:#32F8CC"/>
			<stop  offset="0.546" style="stop-color:#1CFBE2"/>
			<stop  offset="0.6694" style="stop-color:#0CFDF3"/>
			<stop  offset="0.8085" style="stop-color:#03FFFC"/>
			<stop  offset="0.996" style="stop-color:#00FFFF"/>
		</linearGradient>
		<path style="fill:url(#SVGID_00000080909097412080657850000016694639678657259417_);" d="M83.1,77.3V-963.6c0-2.8-0.2-5.4-0.4-8.2
			c-0.2-5-0.2-9.8-0.7-14.7c-0.6-6.5-1.5-12.8-2.6-19.1c-0.2-1.1-0.2-2.2-0.4-3.2c-5.9-33.8-18.6-65.2-36.2-93.1
			c-2.4-3.7-5-7.4-7.6-11.1c-18.9-26.6-42.7-49.4-70-67.1c-3-2-6.1-3.9-9.3-5.8c-5.4-3.2-11.1-6.3-16.9-9.1
			c-14.5-7.2-29.7-13-45.7-17.3c-21.5-5.9-44.4-9.1-67.8-9.1c-7.8,0-15.6,0.4-23.2,1.1c-26,2.2-50.7,8.5-73.7,17.8
			c-27.5,11.3-52.6,27.1-74.5,46.6l-1.9,0.7l-8.9,9.1c-0.2,0.2-11,10.8-11,10.8l-39.9,39.9l-23,23.2l-230.5,230.3
			c0,0.9,0.2,1.9,0.2,2.8c1.1,12.3,1.9,24.7,2.4,37.2c0.7,15.4,1.1,30.8,1.1,46.4c0,79.1-9.3,156-27.1,229.8
			c-3.2,13.7-6.7,27.5-10.6,41.1c-8.5,29.7-18.4,59.1-29.7,87.7c0,0-0.1,0.2,0,0.2c7.2,1.1,14.3,2.2,21.5,3.5
			c2.4,0.4,4.6,0.9,7.1,1.3c67.6,10.4,134.8,26.3,201.2,42.9c61.9,15.4,124.6,35.8,174.9,76.4c11.5,9.3,22.3,20.1,31.6,31.6
			c28.2,35.3,45.3,80.1,45.3,128.7c0,113.5-104.8,203.3-184.8,269.2c-117.3,96.5-257.5,166.2-411.2,200.3c0,1-0.3,1.9-0.3,2.9h667.1
			c115.9,0,209.9-78.3,245-182.8C82.6,147.5,83,123.7,83.1,77.3z"/>
	</g>
</g>
<g>
	<g>
		<g>
			<g>
				<path d="M107.2,29.3h14v7.9c1.3-2.8,3.2-5.4,5.5-7c2.3-1.7,4.8-2.1,7.5-2.1c1.8,0,3,0.2,4.6,0.8L138,44.1
					c-1.9-1.1-3.9-1.8-6.3-1.8c-3,0-5.3,1.2-7,3.4c-3.1,3.8-3.4,9.2-3.4,13.5v20.4h-14L107.2,29.3L107.2,29.3z"/>
				<path d="M183.9,57.3h-32.5c0,2.7,0.9,6.3,2.6,8.6c2.2,2.7,5.1,3.2,7.2,3.2c2,0,4.2-0.5,5.7-1.5c0.2-0.1,1.9-1.4,3-4.2l13.3,1.6
					c-1.9,7.1-5.9,10.8-8.4,12.6c-4.2,2.9-8.9,3.7-13.8,3.7c-6.5,0-12.3-1.4-17.4-7.2c-3.8-4.4-6.5-11-6.5-19.4
					c0-7.2,2.2-14.7,6.6-19.8c5.3-6.1,11.8-7.2,16.7-7.2c4.9,0,11.9,1,17.3,7.5c5.2,6.3,6.1,14.2,6.1,20.4L183.9,57.3L183.9,57.3z
					 M170.9,47.6c-0.1-0.5-0.8-3.6-2.8-5.9c-1.6-1.7-3.8-2.8-6.6-2.8c-3.6,0-5.8,1.7-7.1,3.3c-1.1,1.4-2,3.2-2.4,5.4H170.9z"/>
				<path d="M188.8,29.3h14v6c4.3-6.3,9.4-7.3,13.5-7.3c3.8,0,8.8,0.8,12.5,5.1c4.1,4.7,4.4,10.7,4.4,14.8v31.8h-14V53.8
					c0-3.3-0.1-7.4-2.3-10c-1.1-1.2-2.8-2.3-5.4-2.3c-2.9,0-4.8,1.4-5.9,2.7c-2.3,2.7-2.7,6.3-2.7,9.6v25.8h-14L188.8,29.3
					L188.8,29.3z"/>
				<path d="M284.8,57.3h-32.5c0,2.7,0.9,6.3,2.6,8.6c2.2,2.7,5.1,3.2,7.2,3.2c2,0,4.2-0.5,5.7-1.5c0.2-0.1,1.9-1.4,3-4.2l13.3,1.6
					c-1.9,7.1-5.9,10.8-8.4,12.6c-4.2,2.9-8.9,3.7-13.8,3.7c-6.5,0-12.3-1.4-17.4-7.2c-3.8-4.4-6.5-11-6.5-19.4
					c0-7.2,2.2-14.7,6.6-19.8c5.3-6.1,11.8-7.2,16.7-7.2s11.9,1,17.3,7.5c5.2,6.3,6.1,14.2,6.1,20.4L284.8,57.3L284.8,57.3z
					 M271.8,47.6c-0.1-0.5-0.8-3.6-2.8-5.9c-1.6-1.7-3.8-2.8-6.6-2.8c-3.6,0-5.8,1.7-7.1,3.3c-1.1,1.4-2,3.2-2.4,5.4H271.8z"/>
				<path d="M314.8,79.6h-8.8l-21.7-50.3h15.4L311,56l11-27.4h7.4l11,27.4l11.2-26.7h15.4l-21.7,50.3h-8.8L325.8,51L314.8,79.6z"/>
				<path d="M368.9,29.3h14v7.9c1.3-2.8,3.2-5.4,5.5-7c2.3-1.7,4.8-2.1,7.5-2.1c1.8,0,3,0.2,4.6,0.8l-0.8,15.2
					c-1.9-1.1-3.9-1.8-6.3-1.8c-3,0-5.3,1.2-7,3.4c-3.1,3.8-3.4,9.2-3.4,13.5v20.4h-14L368.9,29.3L368.9,29.3z"/>
			</g>
			<g>
				<path class="st22" d="M149,107.8h-10.4c0-5.3,0-10.7,0-16H149v2.9h-7.8v3.7h7.5v2.8h-7.5v3.6h7.8V107.8z"/>
				<path class="st22" d="M158.9,107.8v-5.9c0-1.7-0.8-3-2.4-3c-1.5,0-2.5,1.4-2.5,3.2v5.8h-2.4V96.5h2.2l0.1,1.5
					c1-1.1,2-1.7,3.2-1.7c2.3,0,4.1,2,4.1,5.5v5.9H158.9z"/>
				<path class="st22" d="M166.2,103.1c0.2,1.4,1.2,2.4,2.9,2.4c0.9,0,2.1-0.4,2.6-1.1l1.5,1.8c-1,1.2-2.7,1.8-4.2,1.8
					c-3.4,0-5.4-2.4-5.4-6c0-3.4,2-5.9,5.2-5.9c3.3,0,5.3,2.3,4.9,7L166.2,103.1L166.2,103.1z M171.5,100.8
					c-0.1-1.5-1.2-2.2-2.5-2.2c-1.3,0-2.4,0.7-2.7,2.2H171.5z"/>
				<path class="st22" d="M178.8,96.5l0.2,1.3c0.8-1.4,1.8-1.6,2.7-1.6c1,0,2,0.5,2.5,1.1l-1.1,2.4c-0.5-0.5-0.9-0.7-1.7-0.7
					c-1.3,0-2.4,0.8-2.4,2.9v6h-2.4V96.5L178.8,96.5L178.8,96.5z"/>
				<path class="st22" d="M193.6,95.3l1.8,1.6l-1.1,1.6c0.8,1,1,2.1,1,3.3c0,1.4-0.5,3.4-2.1,4.2c1.6,0.9,2,2.3,2,3.7
					c0,3.1-2.1,5-4.9,5c-2.8,0-5-2-5-5h2.4c0,1.5,1.2,2.4,2.6,2.4s2.5-0.9,2.5-2.4c0-1.6-1.3-2.3-2.5-2.3c-3,0-5-2.1-5-5.7
					c0-3.5,2.2-5.7,5-5.7c0.8,0,1.6,0.1,2.2,0.6L193.6,95.3z M187.8,101.8c0,2,1.2,3.1,2.6,3.1c1.4,0,2.5-1.2,2.5-3.1
					c0-1.9-1.2-3.2-2.5-3.2C189,98.7,187.8,99.9,187.8,101.8z"/>
				<path class="st22" d="M200.3,93.3c0,2.2-2.9,2.2-2.9,0C197.4,91.1,200.3,91.1,200.3,93.3z M197.7,96.4v11.3h2.4V96.4L197.7,96.4
					z"/>
				<path class="st22" d="M210.6,96.5v1.3l-4.5,7.2h4.5v2.7h-8.2v-1.2l4.7-7.6h-4.3v-2.6C202.8,96.5,210.6,96.5,210.6,96.5z"/>
				<path class="st22" d="M215.5,93.3c0,2.2-2.9,2.2-2.9,0C212.7,91.1,215.5,91.1,215.5,93.3z M212.9,96.4v11.3h2.4V96.4L212.9,96.4
					z"/>
				<path class="st22" d="M225.5,107.8v-5.9c0-1.7-0.8-3-2.4-3c-1.5,0-2.5,1.4-2.5,3.2v5.8h-2.4V96.5h2.2l0.1,1.5
					c1-1.1,2-1.7,3.2-1.7c2.3,0,4.1,2,4.1,5.5v5.9H225.5z"/>
				<path class="st22" d="M238.5,95.3l1.8,1.6l-1.1,1.6c0.8,1,1,2.1,1,3.3c0,1.4-0.5,3.4-2.1,4.2c1.6,0.9,2,2.3,2,3.7
					c0,3.1-2.1,5-4.9,5c-2.8,0-5-2-5-5h2.4c0,1.5,1.2,2.4,2.6,2.4s2.5-0.9,2.5-2.4c0-1.6-1.3-2.3-2.5-2.3c-3,0-5-2.1-5-5.7
					c0-3.5,2.2-5.7,5-5.7c0.8,0,1.6,0.1,2.2,0.6L238.5,95.3z M232.7,101.8c0,2,1.2,3.1,2.6,3.1c1.4,0,2.5-1.2,2.5-3.1
					c0-1.9-1.2-3.2-2.5-3.2C233.8,98.7,232.7,99.9,232.7,101.8z"/>
				<path class="st22" d="M256.1,95.6c-0.5-0.9-1.8-1.8-3.3-1.8c-1.9,0-2.9,0.9-2.9,2.1c0,1.4,1.4,1.8,3.1,2
					c2.9,0.4,5.6,1.3,5.6,5.1c0,3.6-2.7,5.1-5.8,5.1c-2.8,0-5-1-6-3.9l2.2-1.3c0.6,1.8,2.2,2.6,3.9,2.6c1.7,0,3.2-0.7,3.2-2.4
					c0-1.5-1.4-2.1-3.2-2.4c-2.8-0.4-5.5-1.3-5.5-4.8c0-3.3,2.8-4.7,5.4-4.7c2.2,0,4.4,0.7,5.5,3.2L256.1,95.6z"/>
				<path class="st22" d="M264.1,96.5v5.9c0,1.7,0.8,3,2.4,3c1.5,0,2.5-1.4,2.5-3.2v-5.8h2.4v11.3h-2.2l-0.2-1.5
					c-1,1.1-1.9,1.7-3.3,1.7c-2.3,0-4-2-4-5.5v-5.9L264.1,96.5L264.1,96.5z"/>
				<path class="st22" d="M280.7,99.5c-0.7-0.8-1.5-1-2.4-1c-1.2,0-1.8,0.4-1.8,1.1c0,0.7,0.6,1.1,1.8,1.2c1.8,0.1,4.2,0.6,4.2,3.6
					c0,2-1.4,3.7-4.2,3.7c-1.5,0-3.1-0.3-4.5-2l1.2-2c0.7,0.9,2.3,1.6,3.4,1.6c0.9,0,1.8-0.5,1.8-1.4c0-0.8-0.6-1.1-1.9-1.2
					c-1.8-0.2-4-0.9-4-3.5c0-2.6,2.3-3.5,4.1-3.5c1.5,0,2.7,0.3,3.8,1.5L280.7,99.5z"/>
				<path class="st22" d="M288.2,93.3v3.2h2.7v2.4h-2.7v4.9c0,1.1,0.5,1.6,1.3,1.6c0.4,0,0.8-0.1,1.2-0.3l0.7,2.4
					c-0.7,0.3-1.3,0.5-2,0.5c-2.1,0.1-3.5-1.3-3.5-4.1v-4.9H284v-2.4h1.8v-2.9L288.2,93.3z"/>
				<path class="st22" d="M301.3,96.5h2.3v11.3h-2.3l-0.1-1.7c-0.6,1.3-2.1,2-3.2,2c-2.9,0-5-2-5-6c0-3.9,2.2-5.9,5.1-5.9
					c1.3,0,2.6,0.7,3.1,1.8L301.3,96.5z M295.4,102.1c0,2.1,1.3,3.4,2.9,3.4c3.8,0,3.8-6.8,0-6.8C296.7,98.7,295.4,100,295.4,102.1z
					"/>
				<path class="st22" d="M309.1,93.3c0,2.2-2.9,2.2-2.9,0C306.2,91.1,309.1,91.1,309.1,93.3z M306.4,96.4v11.3h2.4V96.4L306.4,96.4
					z"/>
				<path class="st22" d="M319,107.8v-5.9c0-1.7-0.8-3-2.4-3c-1.5,0-2.5,1.4-2.5,3.2v5.8h-2.4V96.5h2.2l0.1,1.5c1-1.1,2-1.7,3.2-1.7
					c2.3,0,4.1,2,4.1,5.5v5.9H319z"/>
				<path class="st22" d="M332.1,96.5h2.3v11.3h-2.3l-0.1-1.7c-0.6,1.3-2.1,2-3.2,2c-2.9,0-5-2-5-6c0-3.9,2.2-5.9,5.1-5.9
					c1.3,0,2.6,0.7,3.1,1.8L332.1,96.5z M326.2,102.1c0,2.1,1.3,3.4,2.9,3.4c3.8,0,3.8-6.8,0-6.8C327.5,98.7,326.2,100,326.2,102.1z
					"/>
				<path class="st22" d="M339.5,91.8V98c0.6-1.2,2.2-1.8,3.2-1.8c2.9,0,5,2,5,5.9c0,3.7-2.2,5.9-5,5.9c-1.2,0-2.4-0.5-3.2-1.8
					l-0.2,1.6H337v-16L339.5,91.8L339.5,91.8z M339.6,102.1c0,2,1.3,3.3,2.8,3.3c1.5,0,2.8-1.4,2.8-3.3c0-2-1.2-3.3-2.8-3.3
					C340.9,98.8,339.6,100.1,339.6,102.1z"/>
				<path class="st22" d="M352.9,93.3c0,2.2-2.9,2.2-2.9,0C350,91.1,352.9,91.1,352.9,93.3z M350.2,96.4v11.3h2.4V96.4L350.2,96.4z"
					/>
				<path class="st22" d="M358,91.8v16h-2.4v-16L358,91.8z"/>
				<path class="st22" d="M363.6,93.3c0,2.2-2.9,2.2-2.9,0C360.7,91.1,363.6,91.1,363.6,93.3z M360.9,96.4v11.3h2.4V96.4L360.9,96.4
					z"/>
				<path class="st22" d="M369.7,93.3v3.2h2.7v2.4h-2.7v4.9c0,1.1,0.5,1.6,1.3,1.6c0.4,0,0.8-0.1,1.2-0.3l0.7,2.4
					c-0.7,0.3-1.3,0.5-2,0.5c-2.1,0.1-3.5-1.3-3.5-4.1v-4.9h-1.8v-2.4h1.8v-2.9L369.7,93.3z"/>
				<path class="st22" d="M385.1,96.5l-6,16h-2.7l1.8-4.9l-3.9-11.1h2.8l1.5,4.9l0.9,3.2l1-3.1l1.8-5H385.1z"/>
			</g>
		</g>
		<g>
			<path class="st23" d="M90.1,57.2L90.1,57.2c-0.6-5.5-2-10.8-4-15.5c0,0,0,0,0,0c-1.7-3.6-3.8-7.1-6.2-10.4
				c-3.9-5.5-8.5-10.4-13.4-14.7h0c0,0,0,0,0,0c0,0-0.1,0-0.2,0c-1.7,0.7-3.3,1.5-4.9,2.3c-3.8,1.9-7.6,4.1-11.1,6.6
				c1.5,1.1,3,2.2,4.4,3.3c8.1,6.6,16.1,15.4,19,26.5v0c0,0.1,0.1,0.2,0.1,0.3c0.1,0.2,0.1,0.4,0.2,0.6c0.8,2.7,1.3,5.6,1.5,8.6l0,0
				c0,0,0,0,0,0.1c0,0.4,0.1,0.8,0.1,1.2c0,0.5,0,1.1,0,1.6c0,5-0.9,9.8-2.4,14.2c0,0.1-0.1,0.3-0.2,0.4l0,0c0,0,0,0,0,0
				c-0.3,0.9-0.7,1.7-1,2.6c-0.3,0.8-0.7,1.5-1.1,2.3c0,0,0,0,0,0c-0.4,0.8-0.8,1.5-1.3,2.3c0,0,0,0,0,0c-0.7,1.1-1.4,2.2-2.2,3.2
				c-6,7.7-14.6,12.6-24.3,12.6c-0.5,0-1.1,0-1.6,0c-0.5,0-0.9-0.1-1.4-0.1c-0.3,0-0.6-0.1-1-0.1c-0.5-0.1-1-0.1-1.4-0.2
				c-0.8-0.2-1.6-0.3-2.4-0.6c-0.4-0.1-0.7-0.2-1.1-0.3c-1.6-0.5-3.1-1.2-4.5-1.9c-0.4-0.2-0.8-0.4-1.2-0.7c-0.1,0-0.2-0.1-0.3-0.2
				c-0.4-0.2-0.7-0.4-1.1-0.7c-0.1-0.1-0.2-0.1-0.3-0.2c-0.3-0.2-0.6-0.5-1-0.7c-0.9-0.6-1.7-1.3-2.5-2c-0.4-0.3-0.8-0.7-1.2-1.1
				c-0.4-0.3-0.7-0.7-1.1-1.1c5.6,6.7,12.9,11.5,21.2,13.3c0,0,0.1,0,0.1,0c1.8,0.4,3.7,0.7,5.6,0.8h0c0.5,0,1,0,1.6,0.1h0.5
				c22.3,0,40.4-20.9,40.4-46.7C90.4,60.8,90.3,59,90.1,57.2z"/>
			<path class="st22" d="M73.1,81.9c1.6-4.4,2.4-9.2,2.4-14.2c0-0.5,0-1.1,0-1.6c0-0.4,0-0.8-0.1-1.2c0,0,0,0,0-0.1l0,0
				c-0.2-2.6-0.6-5.2-1.2-7.6h0c-0.1-0.3-0.2-0.6-0.2-0.9c-0.1-0.2-0.1-0.4-0.2-0.6c0-0.1-0.1-0.2-0.1-0.3l0,0v0
				c-0.4-1.4-0.9-2.7-1.5-4.1c1,2.6,1.7,5.3,2,8.3c0,0.1,0,0.2,0,0.3c0,0.1,0,0.2,0,0.3c0-0.1,0-0.2,0-0.3c0,0,0,0.1,0,0.2
				c0.1,1.1,0.2,2.1,0.2,3.2c0,1.1-0.1,2.2-0.2,3.3c0,0,0,0,0,0.1c0,0.1,0,0.2,0,0.3c-1.5,13.9-11.8,24.7-24.3,24.7
				c-4,0-7.7-1.1-11-3v-14c0-4.4,0.3-9.9,3.5-13.9c1.8-2.2,4.1-3.5,7.2-3.5c2.5,0,4.6,0.7,6.5,1.9l0.8-15.6
				c-1.6-0.6-2.9-0.8-4.7-0.8c-2.8,0-5.3,0.5-7.7,2.2c-2.3,1.6-4.2,4.2-5.5,7.1c0,0,0,0.1-0.1,0.1v-8.1h-9.5l-5.9,16.6l11.9-0.2
				l-21.1,25c1,2.2,2.2,4.2,3.5,6.1c0,0,0.1,0.1,0.1,0.2c0.9,1.3,1.9,2.5,3,3.6c0.4,0.4,0.7,0.8,1.1,1.1c0.4,0.4,0.8,0.7,1.2,1.1
				c0.8,0.7,1.6,1.4,2.5,2c0.3,0.2,0.6,0.5,1,0.7c0.1,0.1,0.2,0.2,0.3,0.2c0.4,0.2,0.7,0.5,1.1,0.7c0.1,0.1,0.2,0.2,0.3,0.2
				c0.4,0.2,0.8,0.5,1.2,0.7c1.4,0.8,3,1.4,4.5,1.9c0.4,0.1,0.7,0.2,1.1,0.3c0.8,0.2,1.6,0.4,2.4,0.6c0.5,0.1,0.9,0.2,1.4,0.2
				c0.3,0,0.6,0.1,1,0.1c0.5,0,0.9,0.1,1.4,0.1c0.5,0,1.1,0,1.6,0c9.7,0,18.3-4.9,24.3-12.6c0.8-1,1.5-2.1,2.2-3.2c0,0,0,0,0,0
				c0.4-0.7,0.9-1.5,1.3-2.3c0,0,0,0,0,0c0.4-0.7,0.8-1.5,1.1-2.3c0.4-0.8,0.7-1.7,1-2.6c0,0,0,0,0,0l0,0C73,82.2,73,82.1,73.1,81.9
				z"/>
			<path class="st22" d="M61.9,12.8c-3.7-2.9-7.7-5.4-11.7-7.7c-4,2.3-7.9,4.8-11.7,7.7c-1.5,1.2-3,2.4-4.6,3.7
				c-5,4.2-10,9-13.9,14.3c-4,5.5-6.6,11-8.6,18c-0.1,0.4-0.2,0.8-0.3,1.2c-1.1,4.2-1.7,8.6-1.7,13.2c0,6.8,1.3,13.3,3.6,19.1
				c0,0.1,0.1,0.2,0.1,0.3L21,67.5l-10.8,0.5c21.7-31.6,40.1-42.5,40.1-42.5c3.6-2.5,7.3-4.7,11.1-6.6c1.7-0.8,3.4-1.6,5.1-2.4
				C64.9,15.3,63.4,14,61.9,12.8z"/>
		</g>
	</g>
</g>
</svg>
