<?xml version="1.0" encoding="utf-8"?>
<!-- Generator: Adobe Illustrator 26.0.3, SVG Export Plug-In . SVG Version: 6.00 Build 0)  -->
<svg version="1.1" id="Layer_1" xmlns="http://www.w3.org/2000/svg" xmlns:xlink="http://www.w3.org/1999/xlink" x="0px" y="0px"
	 viewBox="0 0 410 120" style="enable-background:new 0 0 410 120;" xml:space="preserve">
<style type="text/css">
	.st0{fill:#F2F2F2;}
	.st1{opacity:0.17;}
	.st2{clip-path:url(#SVGID_00000183216721121213805810000015295183790282883760_);}
	.st3{fill:url(#SVGID_00000179606845877994192550000006640767456934085031_);}
	.st4{fill:url(#SVGID_00000065054471593021801490000018138359547607830460_);}
	.st5{fill:url(#SVGID_00000071519181713418019640000005482178466592774065_);}
	.st6{fill:url(#SVGID_00000083051068832496043090000012193612925653505447_);}
	.st7{fill:url(#SVGID_00000004533194744009960320000018058269317173113517_);}
	.st8{fill:url(#SVGID_00000101790826910723992640000003321592140481799859_);}
	.st9{fill:none;}
	.st10{fill:#606060;}
	.st11{clip-path:url(#SVGID_00000059278120739606107140000002918449521806705802_);}
	.st12{clip-path:url(#SVGID_00000162325468128087051610000001856975516000781193_);}
	.st13{fill:url(#SVGID_00000047779033730842686290000016995451075353037984_);}
	.st14{fill:url(#SVGID_00000056419051298890899220000001282460042800445348_);}
	.st15{fill:url(#SVGID_00000145750405043868894750000009966578244778273205_);}
	.st16{fill:#006837;}
	.st17{fill:none;stroke:#FFFFFF;stroke-width:0.75;stroke-miterlimit:10;}
	.st18{fill:none;stroke:#000000;stroke-miterlimit:10;}
	.st19{fill:#E8E8E8;}
	.st20{fill:#BC2328;}
	.st21{opacity:0.58;}
	.st22{fill:#39B54A;}
	.st23{fill:#006838;}
	.st24{fill:#066735;}
	.st25{fill:#0F7C82;}
	.st26{fill:#54514D;}
	.st27{fill:#58595B;}
	.st28{clip-path:url(#SVGID_00000117665347345684186130000009343581168175003278_);}
	.st29{clip-path:url(#SVGID_00000050660478989159070250000016666070689522313626_);}
	.st30{fill:url(#SVGID_00000089557322893924067900000010867375296423326118_);}
	.st31{fill:url(#SVGID_00000037661695956279280690000009279144693593673138_);}
	.st32{fill:url(#SVGID_00000120544110733215446630000000176245233456647328_);}
</style>
<g>
	<defs>
		<rect id="SVGID_00000105414403572202703650000007250707805909960124_" x="-581.4" y="-1543.8" width="1927.3" height="1080"/>
	</defs>
	<clipPath id="SVGID_00000115502731284910458700000012411356797893741466_">
		<use xlink:href="#SVGID_00000105414403572202703650000007250707805909960124_"  style="overflow:visible;"/>
	</clipPath>
	
		<g id="xdVPBZ_00000168099174790046155890000010962681722348294785_" style="clip-path:url(#SVGID_00000115502731284910458700000012411356797893741466_);">
		
			<image style="overflow:visible;" width="3072" height="3072" id="xdVPBZ_00000083779722609055976250000014119796648566821302_" xlink:href="F05EED0A.jpg"  transform="matrix(1 0 0 1 -1250.0104 -2091.0618)">
		</image>
	</g>
</g>
<g>
	<defs>
		<rect id="SVGID_00000183220469088138326530000011987420510337519232_" x="-581.4" y="-1539.4" width="1927.3" height="1080"/>
	</defs>
	<clipPath id="SVGID_00000067200879059932181900000009207367899386110370_">
		<use xlink:href="#SVGID_00000183220469088138326530000011987420510337519232_"  style="overflow:visible;"/>
	</clipPath>
	<g style="clip-path:url(#SVGID_00000067200879059932181900000009207367899386110370_);">
		
			<linearGradient id="SVGID_00000163757136507042554590000001794938611399448732_" gradientUnits="userSpaceOnUse" x1="359.1782" y1="-430.4097" x2="1281.889" y2="-430.4097">
			<stop  offset="5.192782e-07" style="stop-color:#D9E021"/>
			<stop  offset="2.585238e-02" style="stop-color:#CBE230"/>
			<stop  offset="0.1203" style="stop-color:#9CE960"/>
			<stop  offset="0.2201" style="stop-color:#72EF8B"/>
			<stop  offset="0.3235" style="stop-color:#4FF4AF"/>
			<stop  offset="0.4316" style="stop-color:#32F8CC"/>
			<stop  offset="0.546" style="stop-color:#1CFBE2"/>
			<stop  offset="0.6694" style="stop-color:#0CFDF3"/>
			<stop  offset="0.8085" style="stop-color:#03FFFC"/>
			<stop  offset="0.996" style="stop-color:#00FFFF"/>
		</linearGradient>
		<path style="fill:url(#SVGID_00000163757136507042554590000001794938611399448732_);" d="M1281.9,77.3V-963.6
			c0-2.8-0.2-5.4-0.4-8.2c-0.2-5-0.2-9.8-0.7-14.7c-0.6-6.5-1.5-12.8-2.6-19.1c-0.2-1.1-0.2-2.2-0.4-3.2
			c-5.9-33.8-18.6-65.2-36.2-93.1c-2.4-3.7-5-7.4-7.6-11.1c-18.9-26.6-42.7-49.4-70-67.1c-3-2-6.1-3.9-9.3-5.8
			c-5.4-3.2-11.1-6.3-16.9-9.1c-14.5-7.2-29.7-13-45.7-17.3c-21.5-5.9-44.4-9.1-67.8-9.1c-7.8,0-15.6,0.4-23.2,1.1
			c-26,2.2-50.7,8.5-73.7,17.8c-27.5,11.3-52.6,27.1-74.5,46.6l-1.9,0.7l-8.9,9.1c-0.2,0.2-11,10.8-11,10.8l-39.9,39.9l-23,23.2
			L537.5-841.5c0,0.9,0.2,1.9,0.2,2.8c1.1,12.3,1.9,24.7,2.4,37.2c0.7,15.4,1.1,30.8,1.1,46.4c0,79.1-9.3,156-27.1,229.8
			c-3.2,13.7-6.7,27.5-10.6,41.1c-8.5,29.7-18.4,59.1-29.7,87.7c0,0-0.1,0.2,0,0.2c7.2,1.1,14.3,2.2,21.5,3.5
			c2.4,0.4,4.6,0.9,7.1,1.3c67.6,10.4,134.8,26.3,201.2,42.9c61.9,15.4,124.6,35.8,174.9,76.4c11.5,9.3,22.3,20.1,31.6,31.6
			c28.2,35.3,45.3,80.1,45.3,128.7c0,113.5-104.8,203.3-184.8,269.2c-117.3,96.5-257.5,166.2-411.2,200.3c0,1-0.3,1.9-0.3,2.9h667.1
			c115.9,0,209.9-78.3,245-182.8C1281.4,147.5,1281.9,123.7,1281.9,77.3z"/>
		
			<linearGradient id="SVGID_00000169527809390327150870000007074951544646901945_" gradientUnits="userSpaceOnUse" x1="-961.9523" y1="-430.5943" x2="69.5201" y2="-430.5943">
			<stop  offset="5.192782e-07" style="stop-color:#D9E021"/>
			<stop  offset="2.585238e-02" style="stop-color:#CBE230"/>
			<stop  offset="0.1203" style="stop-color:#9CE960"/>
			<stop  offset="0.2201" style="stop-color:#72EF8B"/>
			<stop  offset="0.3235" style="stop-color:#4FF4AF"/>
			<stop  offset="0.4316" style="stop-color:#32F8CC"/>
			<stop  offset="0.546" style="stop-color:#1CFBE2"/>
			<stop  offset="0.6694" style="stop-color:#0CFDF3"/>
			<stop  offset="0.8085" style="stop-color:#03FFFC"/>
			<stop  offset="0.996" style="stop-color:#00FFFF"/>
		</linearGradient>
		<path style="fill:url(#SVGID_00000169527809390327150870000007074951544646901945_);" d="M-67.4,358.2
			c-111.6-24.5-218.9-68.6-315.4-129.8c-89.1-56.5-184.4-131.7-244-220.1c-21-31.1-36.4-66.2-39.2-104c-0.4-5.6-0.7-11-0.7-16.7
			c0-57,24.5-112.3,66.8-150.6c16.8-15.3,36.4-27.2,57.2-36.9c66.3-31.1,137.6-49.4,208.8-65.7c72.8-16.7,145.9-31.4,220-41.1
			c6-0.8,39.9-9,43.6-5.3L39.1-303.3c0,0,92.3-169.4-44.7-325.9l-40.8-41.3l-361.5-361.3l-100.1-100.1c-2.8-3.2-5.4-6.1-8.4-9.1
			l-8.9-8.9c-3-3-5.9-5.6-9.1-8.4c0,0-5.2-5.2-5.6-5.6c-2.2-1.9-4.5-3.5-6.9-5.2c-1.1-0.9-2.2-1.7-3.3-2.6c-0.7-0.6-1.7-1.1-2.6-1.9
			c-1.1-0.7-2.2-1.7-3.5-2.4c-2.8-2-5.6-3.9-8.5-5.6c-0.6-0.4-1.3-0.7-1.9-1.1c-4.3-2.8-8.7-5.2-13.2-7.6c-0.9-0.6-2-1.1-3-1.7
			c-15.2-8-31.2-14.7-48.1-19.5c-10.4-3-21-5.4-32-7.1c-13.2-2-26.6-3.2-40.5-3.2c-134.1,0-244.3,102.2-257.1,233.1
			c-0.9,8.5-1.5,17.5-1.5,26.2v1067c0,10,0.6,19.9,1.9,29.7c8.7,76.5,51.5,142.9,112.8,183.3c6.1,4.3,12.6,8.2,19.1,11.7
			c21.9,11.7,45.5,20.6,70.6,25.6c0.6,0.2,1.1,0.2,1.7,0.4c3.5,0.7,7.2,1.3,10.8,1.9c12.8,2,25.8,3,39,3c0,0,621.3,0,638.9,0
			C-67.3,359.7-67.4,359-67.4,358.2z"/>
	</g>
</g>
<g>
	<path class="st25" d="M85.1,56.9c-2.8-16-9.3-30.4-21.1-42.1C52.7,3.6,40.7,3.5,29,14.2c-6.9,6.3-11.8,14-15.5,22.5
		C6.9,51.7,3.8,67,9.2,83.1c6,17.8,20.2,28.9,37,28.9c6.8,0,13.6-1.9,19.4-5.5c-8.8-0.6-15.3-5.9-20.7-11.6
		c-4.5-4.7-7.2-10.7-7.7-17.2c-0.4-5.2,0.6-10.4,2.8-15.2c1.9-4,6.9-7.7,5.1-12.7c-1.3-3.5-4.8-9.2-4.8-9.2c0,0.1-0.1,0.2-0.1,0.1
		c-0.7-0.4-1.4-0.9-3.9-0.4c1.5-2.5,3.3-4.7,5-4.2l2.8-3.4c2.6-2.3,7.4-1.6,10.3-0.3c5.7,2.7,7.1,8.7,8.7,14.1
		c1.5,5,3.3,10,5.5,14.8c5.5-0.6,11.1,0.4,16.1,2.9c0.3-0.9,0.6-1.7,0.8-2.6c0.1-0.3,0.2-0.6,0.2-1C85.4,59.5,85.3,58.2,85.1,56.9z
		 M59.5,35.2l-0.6-0.3c-0.3-0.5-0.7-0.9-1.1-1.4c-2-2.2-6.2-3.7-9.6-3.6c-0.1,0-0.3-0.1-0.4-0.1c-0.3-0.3-0.2-0.9-0.2-1.3
		c0.1-0.6,0.4-1.3,0.7-1.8c0.8-1,1.9-1.7,3.1-1.8c-0.8,0.8-1.1,2-0.7,3c2.4-2.2,5.8-2.8,8.8-1.6c-0.9,0.1-1.8,0.3-2.7,0.6
		c-0.8,0.3-1.5,1-1.9,1.9c1.7-0.4,3.5-0.4,5.3-0.1c0.6,0.1,1.2,0.3,1.3,0.9c-0.7,0.2-1.3,0.5-2,0.7c-0.3,0.1-0.6,0.2-0.9,0.4
		c-0.2,0.2-0.3,0.6-0.2,0.8c0.9-0.2,1.8-0.4,2.7-0.4c0.9,0,1.8,0.3,2.5,0.9c0.5,0.6,0.9,1.3,1,2.1C62.9,33.3,60.8,33.7,59.5,35.2
		L59.5,35.2z"/>
	<path class="st25" d="M130.6,33.4c0-0.3,0-0.6,0-0.9c0-0.4-0.1-0.7-0.1-1.1c0-0.1,0-0.1,0-0.2c-0.3-1.9-1-3.8-2.1-5.4
		c-0.1-0.2-0.3-0.4-0.4-0.6c-1.1-1.5-2.5-2.9-4.1-3.9c-0.2-0.1-0.4-0.2-0.5-0.3c-0.3-0.2-0.6-0.4-1-0.5c-0.9-0.4-1.7-0.8-2.7-1
		c-1.3-0.4-2.6-0.5-3.9-0.5c-0.5,0-0.9,0-1.4,0.1c-1.5,0.1-2.9,0.5-4.3,1c-1.6,0.7-3.1,1.6-4.3,2.7l-0.1,0l-0.5,0.5l-0.6,0.6
		l-2.3,2.3l-1.3,1.3L87.4,41c0,0.1,0,0.1,0,0.2c0.1,0.7,0.1,1.4,0.1,2.2c0,0.9,0.1,1.8,0.1,2.7c0,4.5-0.5,9-1.6,13.4
		c-0.1,0.5-0.2,1-0.4,1.4c-0.1,0.3-0.2,0.6-0.3,1c-0.3,0.9-0.5,1.7-0.8,2.6c1.2,0.6,2.4,1.3,3.5,2.1c5.2-2.4,10.5-4.7,16.2-5.8
		c5.7-1.1,11.8-0.8,16.8,2c-0.9,2.6-2.3,5-4.2,7.1c2.2,2.5,3,6,1.9,9.1c-1.1,3.1-3.8,5.3-6.9,6.2c0.6,5.9,3.3,13.1-1.2,18.3
		c-1.6,1.9-3.5,2.3-5.7,3.1c-1.7,0.6-10.1,3-12.3,4.5h23.1c6.7,0,12.2-4.6,14.3-10.6c0.6-1.8,0.6-3.1,0.6-5.8V33.9
		C130.6,33.7,130.6,33.5,130.6,33.4z"/>
	<path class="st26" d="M235.7,76.9h6.4v29.3h-6.4V93.9h-13.5v12.3h-6.4V76.9h6.4v11.9h13.5V76.9z"/>
	<path class="st26" d="M264.9,87.5c1.5,1.4,2.2,3.7,2.2,6.7v12.1h-5.9v-3c-0.4,1-1.1,1.9-2.1,2.5c-1,0.6-2.2,0.9-3.4,0.9
		c-1.3,0-2.6-0.3-3.8-0.8c-1.1-0.5-2-1.3-2.7-2.3c-0.6-1-1-2.1-1-3.3c-0.1-1.3,0.3-2.5,1.1-3.5c0.8-0.9,2-1.5,3.7-1.9
		c2.3-0.4,4.6-0.6,6.9-0.6h1.1v-0.7c0-1.2-0.3-2.1-0.8-2.6c-0.5-0.5-1.4-0.7-2.7-0.7c-1.1,0-2.2,0.2-3.3,0.5
		c-1.2,0.4-2.4,0.9-3.5,1.5l-1.7-4.2c2.8-1.6,5.9-2.5,9.1-2.5C261.2,85.3,263.5,86,264.9,87.5z M260,101c0.8-0.9,1.2-2,1.1-3.2v-0.7
		h-0.7c-2.2,0-3.8,0.2-4.7,0.5c-0.8,0.3-1.4,1.1-1.4,2c0,0.7,0.3,1.4,0.8,1.9c0.5,0.5,1.2,0.8,1.9,0.8
		C258.2,102.3,259.2,101.8,260,101z"/>
	<path class="st26" d="M286.8,101.8l-0.3,4.6c-0.8,0.1-1.6,0.2-2.4,0.2c-3.1,0-5.4-0.7-6.8-2c-1.4-1.4-2.1-3.4-2.1-6.2v-7.8h-3.9
		v-4.7h3.9v-6h6.3v6h5.1v4.7h-5.1v7.8c0,2.4,1.1,3.7,3.4,3.7C285.4,101.9,286.1,101.9,286.8,101.8z"/>
	<path class="st26" d="M293.1,103.7c-1.9-1.9-2.9-4.5-2.9-7.7c0-2,0.4-3.9,1.4-5.6c0.9-1.6,2.2-2.9,3.9-3.8c1.8-0.9,3.8-1.4,5.8-1.3
		c1.5,0,2.9,0.2,4.3,0.7c1.2,0.4,2.4,1,3.4,1.9l-1.7,4.3c-0.8-0.6-1.7-1.1-2.6-1.5c-0.9-0.3-1.8-0.5-2.8-0.5c-1.6,0-2.9,0.5-3.8,1.4
		c-0.9,1-1.3,2.4-1.3,4.3c0,1.9,0.4,3.4,1.3,4.3c0.9,1,2.2,1.5,3.8,1.5c1,0,1.9-0.2,2.8-0.5c1-0.3,1.8-0.8,2.6-1.5l1.7,4.3
		c-1,0.8-2.2,1.5-3.5,1.8c-1.5,0.4-3,0.7-4.5,0.7C297.6,106.6,295,105.6,293.1,103.7z"/>
	<path class="st26" d="M331.7,87.5c1.2,1.4,1.8,3.6,1.8,6.5v12.3h-6.3v-12c0-1.4-0.3-2.4-0.8-3c-0.6-0.7-1.5-1-2.4-1
		c-1.2-0.1-2.3,0.4-3.1,1.2c-0.8,0.9-1.2,2.1-1.2,3.3v11.4h-6.3V76.9h6.3v11.6c0.7-1,1.6-1.9,2.8-2.4c1.2-0.6,2.5-0.8,3.8-0.8
		C328.7,85.3,330.5,86,331.7,87.5z"/>
	<path class="st26" d="M358.2,97.2h-13.3c0.2,1.6,0.7,2.8,1.6,3.6c0.9,0.7,2.1,1.1,3.7,1.1c1.1,0,2.1-0.2,3.1-0.5
		c1-0.3,2-0.8,2.8-1.5l1.7,4.2c-1.1,0.8-2.3,1.4-3.6,1.8c-1.4,0.4-2.8,0.7-4.3,0.7c-3.4,0-6.2-0.9-8.1-2.8c-2-1.9-3-4.5-3-7.8
		c0-1.9,0.4-3.8,1.3-5.5c0.8-1.6,2.1-2.9,3.6-3.8c1.6-0.9,3.4-1.4,5.2-1.3c2.9,0,5.1,0.9,6.8,2.8c1.7,1.9,2.5,4.4,2.5,7.6
		L358.2,97.2z M346.2,90.8c-0.8,0.9-1.2,2.1-1.3,3.3h8c-0.1-1.5-0.5-2.6-1.1-3.3c-0.7-0.8-1.7-1.2-2.8-1.1
		C348,89.6,347,90,346.2,90.8z"/>
	<path class="st26" d="M378.3,90.5l-3.5,0.4c-1.7,0.2-3,0.7-3.7,1.5c-0.8,0.9-1.1,2.1-1.1,3.3v10.6h-6.3V85.8h6v3.5
		c1-2.4,3.1-3.6,6.4-3.9l1.8-0.1L378.3,90.5z"/>
	<path class="st26" d="M397.4,85.9h6.2l-12.3,27.9h-6.4l3.9-8.6l-8.4-19.3h6.5l5.2,13L397.4,85.9z"/>
	<path class="st25" d="M176.3,38.1l-11.4,16.4l-11.1-16.4h-6.1v35.3h5.7V46.5l11.2,16.2l11.8-16.3v26.9h5.8V38.1H176.3z"/>
	<path class="st25" d="M207,48.3c-2.2-1.4-4.8-2.2-7.4-2.1c-2,0-3.9,0.2-5.8,0.6c-1.5,0.3-3,0.8-4.3,1.6v5.2c1.1-0.9,2.5-1.6,3.9-2
		c1.5-0.5,3.1-0.7,4.6-0.7c4.3,0,6.5,1.8,6.5,5.4v2.5c-2.1-1.3-4.8-1.9-7.9-1.9c-3.1,0-5.4,0.7-7.1,2.2c-1.7,1.4-2.5,3.6-2.5,6.5
		c0,3.1,1,5.3,3.1,6.6c2,1.3,4.6,2,7.8,2c3.9,0,6.9-0.5,9-1.4c2.1-0.9,3.2-2.6,3.2-5V55C210.1,51.9,209.1,49.7,207,48.3z
		 M204.5,67.4c0,0.9-0.5,1.7-1.4,1.9c-0.9,0.3-2.5,0.5-4.7,0.5c-1.5,0-2.9-0.3-4.2-1.1c-1.2-0.7-1.8-2-1.8-3.3
		c-0.1-1.3,0.5-2.5,1.6-3.2c1-0.7,2.6-1.1,4.6-1.1c2,0,4.1,0.4,5.9,1.2V67.4z"/>
	<path class="st25" d="M229.2,46.2c-2.7,0-5.4,0.8-7.8,2.2V35.6h-5.6v37.7h5.5l0.1-20.6c1.9-1.1,4-1.7,6.2-1.7c2,0,3.5,0.6,4.5,1.7
		s1.5,2.8,1.5,4.9v15.8h5.6V56.9C239.2,49.8,235.9,46.2,229.2,46.2z"/>
	<path class="st25" d="M263.7,48.3c-2.2-1.4-4.8-2.2-7.4-2.1c-2,0-3.9,0.2-5.8,0.6c-1.5,0.3-3,0.8-4.3,1.6v5.2
		c1.1-0.9,2.5-1.6,3.9-2c1.5-0.5,3.1-0.7,4.7-0.7c4.3,0,6.5,1.8,6.5,5.4v2.5c-2.1-1.3-4.8-1.9-7.9-1.9c-3.1,0-5.4,0.7-7.1,2.2
		c-1.7,1.4-2.5,3.6-2.5,6.5c0,3.1,1,5.3,3.1,6.6c2,1.3,4.6,2,7.8,2c3.9,0,6.9-0.5,9-1.4c2.1-0.9,3.2-2.6,3.2-5V55
		C266.8,51.9,265.8,49.7,263.7,48.3z M261.2,67.4c0.1,0.9-0.5,1.7-1.4,1.9c-0.9,0.3-2.5,0.5-4.7,0.5c-1.5,0-2.9-0.3-4.2-1.1
		c-1.2-0.7-1.8-2-1.8-3.3c-0.1-1.3,0.5-2.5,1.6-3.2c1-0.7,2.6-1.1,4.6-1.1c2,0,4,0.4,5.9,1.2L261.2,67.4z"/>
	<path class="st25" d="M289.5,61.4c-0.7-1-1.7-1.7-2.7-2.2c-1.4-0.6-2.8-1.1-4.2-1.4c-1.4-0.4-2.8-0.9-4.1-1.6
		c-0.9-0.5-1.4-1.5-1.3-2.5c0-0.9,0.5-1.8,1.3-2.2c1.1-0.6,2.3-0.9,3.5-0.8c1.1,0,2.3,0.2,3.4,0.5c1.4,0.6,2.8,1.2,4.1,2v-4.7
		c-1.2-0.6-2.5-1.2-3.8-1.6c-1.4-0.4-2.8-0.6-4.3-0.6c-1.6,0-3.2,0.3-4.7,0.8c-1.5,0.5-2.8,1.5-3.7,2.7c-1,1.3-1.5,3-1.4,4.7
		c0,2.4,0.7,4.2,2.2,5.3c1.8,1.3,3.8,2.1,5.9,2.6l1.2,0.4c1.1,0.4,2.2,0.9,3.3,1.5c0.7,0.5,1.1,1.2,1,2.1c0,1-0.5,1.9-1.3,2.4
		c-1.1,0.7-2.3,1-3.6,0.9c-1.5,0-3-0.2-4.4-0.7c-1.5-0.6-3-1.3-4.3-2.2V72c1.3,0.6,2.7,1.2,4.1,1.6c1.5,0.4,3,0.6,4.6,0.5
		c2.9,0,5.4-0.7,7.4-2.1c2-1.4,3.1-3.5,3.1-6.3C290.7,63.9,290.3,62.5,289.5,61.4z"/>
	<path class="st25" d="M313.9,48.3c-2.2-1.4-4.8-2.2-7.4-2.1c-2,0-3.9,0.2-5.8,0.6c-1.5,0.3-3,0.8-4.3,1.6v5.2
		c1.1-0.9,2.5-1.6,3.9-2c1.5-0.5,3.1-0.7,4.6-0.7c4.3,0,6.5,1.8,6.5,5.4v2.5c-2.1-1.3-4.8-1.9-7.9-1.9c-3.1,0-5.4,0.7-7.1,2.2
		c-1.7,1.4-2.5,3.6-2.5,6.5c0,3.1,1,5.3,3.1,6.6s4.6,2,7.8,2c3.9,0,6.9-0.5,9-1.4c2.1-0.9,3.2-2.6,3.2-5V55
		C316.9,51.9,315.9,49.7,313.9,48.3z M311.4,67.4c0,0.9-0.5,1.7-1.4,1.9c-0.9,0.3-2.5,0.5-4.7,0.5c-1.5,0-2.9-0.3-4.2-1.1
		c-1.2-0.7-1.8-2-1.8-3.3c-0.1-1.3,0.5-2.5,1.6-3.2c1-0.7,2.6-1.1,4.6-1.1c2,0,4,0.4,5.9,1.2V67.4z"/>
	<path class="st25" d="M332.6,58.3l12.1-11.5h-6.8l-9.7,9.9l0.1-20h-5.6v36.6h5.5V61.4l10.7,11.9h7.2L332.6,58.3z"/>
	<path class="st25" d="M363.1,51.4v-4.6h-6.5v-7.4H351v7.4h-4.3v4.6h4.3v15.1c0,2.4,0.7,4.2,2.1,5.5c1.4,1.3,3.3,1.9,5.7,1.9
		c1.5,0,3-0.2,4.4-0.8v-4.9c-0.5,0.3-1,0.5-1.6,0.6c-0.6,0.2-1.2,0.2-1.8,0.2c-1.2,0-2-0.3-2.4-0.9c-0.4-0.6-0.7-1.5-0.7-2.8v-14
		H363.1z"/>
	<path class="st25" d="M380.8,46.2c-2.7,0-5.4,0.8-7.8,2.2V35.6h-5.5v37.7h5.5l0-20.6c1.9-1.1,4-1.7,6.2-1.7c2,0,3.5,0.6,4.5,1.7
		c1,1.1,1.5,2.8,1.5,4.9v15.8h5.5V56.9C390.8,49.8,387.5,46.2,380.8,46.2z"/>
	<path class="st25" d="M402.3,46.9h-5.6v26.4h5.6L402.3,46.9z M396.6,37.5v5h5.9v-5H396.6z"/>
</g>
</svg>
