<?xml version="1.0" encoding="utf-8"?>
<!-- Generator: Adobe Illustrator 26.0.3, SVG Export Plug-In . SVG Version: 6.00 Build 0)  -->
<svg version="1.1" id="Layer_1" xmlns="http://www.w3.org/2000/svg" xmlns:xlink="http://www.w3.org/1999/xlink" x="0px" y="0px"
	 viewBox="0 0 410 120" style="enable-background:new 0 0 410 120;" xml:space="preserve">
<style type="text/css">
	.st0{clip-path:url(#SVGID_00000055694669100228035430000004042239128718012332_);}
	.st1{fill:#BC2328;}
	.st2{enable-background:new    ;}
</style>
<g>
	<g>
		<defs>
			<rect id="SVGID_1_" x="38.3" y="-1543.8" width="1927.3" height="1080"/>
		</defs>
		<clipPath id="SVGID_00000031926267259925274000000000520408755071913649_">
			<use xlink:href="#SVGID_1_"  style="overflow:visible;"/>
		</clipPath>
		
			<g id="xdVPBZ_00000168099174790046155890000010962681722348294785_" style="clip-path:url(#SVGID_00000031926267259925274000000000520408755071913649_);">
		</g>
	</g>
</g>
<g>
	<g>
		<g>
			<g>
				<path class="st1" d="M112.6,87.1V41.3c0-0.1,0-0.2,0-0.4s0-0.4,0-0.7s-0.1-0.6-0.1-0.8v-0.1c-0.3-1.5-0.8-2.9-1.6-4.1
					c-0.1-0.2-0.2-0.3-0.3-0.5c-0.8-1.2-1.9-2.2-3.1-2.9c-0.1-0.1-0.3-0.2-0.4-0.2c-0.2-0.1-0.5-0.3-0.7-0.4c-0.7-0.3-1.3-0.6-2-0.8
					c-1-0.3-2-0.4-3-0.4c-0.3,0-0.7,0-1,0c-1.2,0.1-2.3,0.4-3.3,0.8c-1.2,0.5-2.4,1.2-3.3,2.1h-0.1L93,33.3l-0.5,0.5l-1.8,1.8l-1,1
					L79.3,46.7v0.1c0,0.5,0.1,1.1,0.1,1.6c0,0.7,0,1.4,0,2c0,3.5-0.4,6.9-1.2,10.1c-0.1,0.6-0.3,1.2-0.5,1.8
					c-0.4,1.3-0.8,2.6-1.3,3.8l0,0c0.3,0,0.6,0.1,1,0.2c0.1,0,0.2,0,0.3,0.1c3,0.5,6,1.2,9,1.9c2.8,0.7,5.6,1.6,7.8,3.3
					c0.5,0.4,1,0.9,1.4,1.4c1.3,1.6,2,3.5,2,5.7c0,5-4.7,8.9-8.3,11.8c-5.2,4.3-11.5,7.3-18.4,8.8v0.1h29.9c5.2,0,9.4-3.4,11-8
					C112.6,90.2,112.6,89.1,112.6,87.1z"/>
				<path class="st1" d="M75.3,50.5c0,3.5-0.5,6.9-1.8,10.2c-2.3,5.8-6.9,10.8-12.7,13.6c0,0-0.2,0.1-0.1,0C62,73,66.3,63.4,56.6,47
					C50,36,45,21.6,51.7,10.1c2.7-4.7,7-8.6,12.1-10.8c0.1,0,0.1,0,0.1,0.1c-0.7,0.9-1.2,4-1.4,4.8c-0.9,4-1,10.2,6.2,23.6
					C72.4,34.8,75.3,42.5,75.3,50.5z"/>
				<path class="st1" d="M52.2,99.5c-5-1.1-9.8-3-14.1-5.7c-4-2.5-8.3-5.8-10.9-9.7c-0.9-1.4-1.6-2.9-1.8-4.6c0-0.2,0-0.5,0-0.7
					c0-2.5,1.1-4.9,3-6.6c0.7-0.7,1.6-1.2,2.6-1.6c3-1.4,6.2-2.2,9.3-2.9c3.3-0.7,12.3-1.5,12.5-1.4l4.2,4.1c0,0,4.1-7.4-2-14.3
					l-1.8-1.8L37,38.3l-4.5-4.4c-0.1-0.1-0.2-0.3-0.4-0.4l-0.4-0.4c-0.1-0.1-0.3-0.2-0.4-0.4l-0.2-0.2c-0.1-0.1-0.2-0.2-0.3-0.2
					c0,0-0.1-0.1-0.2-0.1c0,0-0.1,0-0.1-0.1c0,0-0.1-0.1-0.2-0.1c-0.1-0.1-0.2-0.2-0.4-0.2h-0.1c-0.2-0.1-0.4-0.2-0.6-0.3
					c0,0-0.1,0-0.1-0.1c-0.7-0.4-1.4-0.7-2.1-0.9c-0.5-0.1-1-0.2-1.4-0.3C25,30,24.4,30,23.7,30c-6,0-10.9,4.5-11.5,10.2
					c0,0.4-0.1,0.8-0.1,1.2v46.9c0,0.4,0,0.9,0.1,1.3c0.4,3.4,2.3,6.3,5,8.1c0.3,0.2,0.6,0.4,0.9,0.5c1,0.5,2,0.9,3.2,1.1
					c0,0,0,0,0.1,0c0.2,0,0.3,0.1,0.5,0.1c0.6,0.1,1.2,0.1,1.7,0.1C23.6,99.5,51.4,99.5,52.2,99.5C52.3,99.5,52.2,99.5,52.2,99.5z"
					/>
			</g>
		</g>
	</g>
	<g>
		<g>
			<g class="st2">
				<path class="st1" d="M234.9,100.2V80.5h6l3.9,15l3.9-15h6v19.7h-3.8V84.3l-4,15.9h-4.1l-4.1-15.9v15.9H234.9z"/>
				<path class="st1" d="M258.5,84v-3.5h3.9V84H258.5z M258.5,100.2V85.6h3.9v14.5H258.5z"/>
				<path class="st1" d="M266,100.2V80.5h3.9v19.7H266z"/>
				<path class="st1" d="M273.5,100.2V80.5h3.9v19.7H273.5z"/>
				<path class="st1" d="M280.1,95.4h3.9c0,0.7,0.3,1.3,0.8,1.7s1.2,0.5,2.2,0.5c0.8,0,1.3-0.1,1.8-0.4c0.4-0.3,0.6-0.6,0.6-1.1
					c0-0.7-0.8-1.2-2.3-1.5c-0.6-0.1-1.1-0.2-1.5-0.3c-1.9-0.5-3.2-1.1-3.9-1.7c-0.7-0.7-1.1-1.6-1.1-2.7c0-1.5,0.5-2.7,1.6-3.5
					s2.5-1.3,4.4-1.3c1.9,0,3.5,0.4,4.6,1.3c1.1,0.9,1.7,2.1,1.8,3.7h-3.8c0-0.6-0.3-1.1-0.7-1.4c-0.4-0.3-1.1-0.5-1.8-0.5
					c-0.7,0-1.3,0.1-1.7,0.3s-0.5,0.6-0.5,1c0,0.6,1,1.1,2.9,1.5c0.4,0.1,0.8,0.2,1.1,0.2c1.9,0.5,3.3,1,4,1.6
					c0.7,0.6,1.1,1.5,1.1,2.7c0,1.6-0.6,2.9-1.7,3.8c-1.2,0.9-2.9,1.3-5.1,1.3c-2,0-3.6-0.5-4.7-1.4c-1.1-0.9-1.7-2.1-1.7-3.7V95.4z
					"/>
			</g>
		</g>
		<g>
			<g>
				<path class="st1" d="M159.2,34.6l-12,17.3l-11.7-17.3h-6.4v37.2h6V43.5l11.9,17l12.4-17.2v28.4h6.1V34.6H159.2z"/>
				<path class="st1" d="M191.7,45.3c-2.1-1.5-4.7-2.2-7.8-2.2c-2.1,0-4.2,0.2-6.2,0.7s-3.5,1-4.5,1.7V51c1.1-0.9,2.4-1.6,4.1-2.1
					c1.6-0.5,3.3-0.7,4.9-0.7c4.6,0,6.9,1.9,6.9,5.7v2.7c-2.2-1.3-5-2-8.4-2c-3.2,0-5.7,0.7-7.5,2.3c-1.8,1.5-2.6,3.8-2.6,6.9
					c0,3.2,1.1,5.5,3.2,6.9c2.1,1.4,4.9,2.1,8.2,2.1c4.1,0,7.3-0.5,9.5-1.5s3.3-2.7,3.3-5.3V52.4C194.9,49.2,193.9,46.8,191.7,45.3z
					 M189.1,65.5c0,1-0.5,1.7-1.4,2c-1,0.3-2.6,0.5-5,0.5c-1.7,0-3.2-0.4-4.4-1.2c-1.2-0.8-1.9-1.9-1.9-3.5c0-1.5,0.5-2.6,1.7-3.3
					c1.1-0.7,2.7-1.1,4.8-1.1c2.3,0,4.3,0.4,6.2,1.2L189.1,65.5L189.1,65.5z"/>
				<path class="st1" d="M215,43.2c-2.7,0-5.5,0.7-8.3,2.3V32h-5.8v39.8h5.8l0.1-21.7c2.1-1.2,4.3-1.8,6.6-1.8
					c2.1,0,3.7,0.6,4.8,1.8s1.6,2.9,1.6,5.2v16.6h5.9V54.4C225.6,46.9,222.1,43.2,215,43.2z"/>
				<path class="st1" d="M251.5,45.3c-2.1-1.5-4.7-2.2-7.8-2.2c-2.1,0-4.2,0.2-6.2,0.7s-3.5,1-4.5,1.7V51c1.1-0.9,2.4-1.6,4.1-2.1
					c1.6-0.5,3.3-0.7,4.9-0.7c4.6,0,6.9,1.9,6.9,5.7v2.7c-2.2-1.3-5-2-8.4-2c-3.2,0-5.7,0.7-7.5,2.3c-1.8,1.5-2.6,3.8-2.6,6.9
					c0,3.2,1.1,5.5,3.2,6.9c2.1,1.4,4.9,2.1,8.2,2.1c4.1,0,7.3-0.5,9.5-1.5s3.3-2.7,3.3-5.3V52.4C254.7,49.2,253.6,46.8,251.5,45.3z
					 M248.9,65.5c0,1-0.5,1.7-1.4,2c-1,0.3-2.6,0.5-5,0.5c-1.7,0-3.2-0.4-4.4-1.2c-1.2-0.8-1.9-1.9-1.9-3.5c0-1.5,0.5-2.6,1.7-3.3
					c1.1-0.7,2.7-1.1,4.8-1.1c2.3,0,4.3,0.4,6.2,1.2L248.9,65.5L248.9,65.5z"/>
				<path class="st1" d="M278.6,59.2c-0.8-1.1-1.8-1.9-2.9-2.4s-2.6-1-4.4-1.5c-2-0.6-3.4-1.1-4.3-1.7c-0.9-0.5-1.4-1.4-1.4-2.6
					c0-1,0.5-1.8,1.4-2.3c0.9-0.6,2.1-0.8,3.7-0.8c1.4,0,2.6,0.2,3.5,0.6c1,0.4,2.4,1.1,4.4,2.1v-5c-1.4-0.7-2.8-1.3-4-1.7
					s-2.7-0.6-4.5-0.6c-1.7,0-3.4,0.3-5,0.9c-1.6,0.6-2.9,1.5-3.9,2.9c-1,1.3-1.6,2.9-1.6,4.9c0,2.5,0.8,4.4,2.3,5.6
					c1.5,1.2,3.6,2.1,6.2,2.7l1.3,0.5c1.6,0.6,2.7,1.1,3.5,1.6c0.7,0.5,1.1,1.2,1.1,2.2c0,1-0.5,1.9-1.4,2.5c-0.9,0.7-2.2,1-3.8,1
					c-1.7,0-3.3-0.2-4.6-0.7c-1.4-0.5-2.9-1.3-4.6-2.3v5.5c1.6,0.7,3,1.3,4.4,1.7c1.4,0.4,3,0.6,4.8,0.6c3.1,0,5.7-0.7,7.8-2.2
					c2.1-1.5,3.2-3.7,3.3-6.7C279.9,61.8,279.5,60.3,278.6,59.2z"/>
				<path class="st1" d="M304.4,45.3c-2.1-1.5-4.7-2.2-7.8-2.2c-2.1,0-4.2,0.2-6.2,0.7s-3.5,1-4.5,1.7V51c1.1-0.9,2.4-1.6,4.1-2.1
					c1.6-0.5,3.3-0.7,4.9-0.7c4.6,0,6.9,1.9,6.9,5.7v2.7c-2.2-1.3-5-2-8.4-2c-3.2,0-5.7,0.7-7.5,2.3c-1.8,1.5-2.6,3.8-2.6,6.9
					c0,3.2,1.1,5.5,3.2,6.9s4.9,2.1,8.2,2.1c4.1,0,7.3-0.5,9.5-1.5s3.3-2.7,3.3-5.3V52.4C307.6,49.2,306.5,46.8,304.4,45.3z
					 M301.7,65.5c0,1-0.5,1.7-1.4,2c-1,0.3-2.6,0.5-5,0.5c-1.7,0-3.2-0.4-4.4-1.2c-1.2-0.8-1.9-1.9-1.9-3.5c0-1.5,0.5-2.6,1.7-3.3
					c1.1-0.7,2.7-1.1,4.8-1.1c2.3,0,4.3,0.4,6.2,1.2L301.7,65.5L301.7,65.5z"/>
				<path class="st1" d="M324.1,55.9l12.7-12.1h-7.2l-10.2,10.5l0.1-21.1h-5.9v38.6h5.8V59.2l11.3,12.5h7.6L324.1,55.9z"/>
				<path class="st1" d="M356.3,48.6v-4.8h-6.8V36h-6v7.8H339v4.8h4.5v15.9c0,2.5,0.7,4.5,2.2,5.9c1.4,1.4,3.4,2.1,6,2.1
					c1.8,0,3.3-0.3,4.6-0.9v-5.2c-0.5,0.2-1,0.5-1.7,0.6c-0.7,0.2-1.3,0.2-1.9,0.2c-1.2,0-2.1-0.3-2.6-0.9s-0.7-1.6-0.7-3V48.6
					H356.3L356.3,48.6z"/>
				<path class="st1" d="M375,43.2c-2.7,0-5.5,0.7-8.3,2.3V32h-5.8v39.8h5.8V50.1c2.1-1.2,4.3-1.8,6.6-1.8c2.1,0,3.7,0.6,4.8,1.8
					c1.1,1.2,1.6,2.9,1.6,5.2v16.6h5.9V54.4C385.6,46.9,382,43.2,375,43.2z"/>
				<path class="st1" d="M397.6,43.9h-5.9v27.8h5.9V43.9z M391.6,34v5.3h6.2V34H391.6z"/>
			</g>
		</g>
	</g>
	<g class="st2">
		<path class="st1" d="M194.2,118v-6.8h-2.5v-1.5h6.6v1.5h-2.4v6.8H194.2z"/>
		<path class="st1" d="M198.2,118v-6.1h1.5v1c0.2-0.4,0.5-0.7,0.7-0.9c0.3-0.2,0.6-0.3,1-0.3c0.1,0,0.1,0,0.1,0c0,0,0.1,0,0.1,0
			l0,1.7h-0.5c-0.4,0-0.8,0.1-1,0.3s-0.3,0.6-0.3,1v3.2H198.2z"/>
		<path class="st1" d="M208.1,111.9v6.1h-1.6v-0.7c-0.2,0.3-0.5,0.5-0.8,0.7c-0.3,0.1-0.7,0.2-1,0.2c-0.7,0-1.2-0.2-1.5-0.5
			c-0.3-0.4-0.5-0.9-0.5-1.6v-4.2h1.6v3.7c0,0.4,0.1,0.7,0.2,0.9c0.1,0.2,0.4,0.3,0.7,0.3c0.4,0,0.7-0.1,0.9-0.3s0.3-0.5,0.3-0.9
			v-3.6H208.1z"/>
		<path class="st1" d="M209.2,116.1h1.6c0,0.3,0.1,0.5,0.3,0.7c0.2,0.2,0.5,0.2,0.9,0.2c0.3,0,0.6-0.1,0.7-0.2
			c0.2-0.1,0.3-0.3,0.3-0.5c0-0.3-0.3-0.5-1-0.6c-0.3-0.1-0.5-0.1-0.6-0.1c-0.8-0.2-1.3-0.4-1.7-0.7c-0.3-0.3-0.5-0.7-0.5-1.1
			c0-0.6,0.2-1.1,0.7-1.5c0.5-0.4,1.1-0.5,1.8-0.5c0.8,0,1.5,0.2,1.9,0.5c0.5,0.4,0.7,0.9,0.7,1.5h-1.6c0-0.3-0.1-0.5-0.3-0.6
			s-0.4-0.2-0.8-0.2c-0.3,0-0.5,0-0.7,0.1c-0.2,0.1-0.2,0.2-0.2,0.4c0,0.2,0.4,0.5,1.2,0.6c0.2,0,0.3,0.1,0.4,0.1
			c0.8,0.2,1.4,0.4,1.7,0.7c0.3,0.3,0.4,0.7,0.4,1.1c0,0.7-0.2,1.2-0.7,1.6c-0.5,0.4-1.2,0.5-2.1,0.5c-0.8,0-1.5-0.2-2-0.6
			C209.4,117.3,209.2,116.8,209.2,116.1L209.2,116.1z"/>
		<path class="st1" d="M218.5,118.1c-0.2,0-0.3,0-0.5,0c-0.2,0-0.3,0-0.4,0c-0.6,0-1.1-0.1-1.3-0.4s-0.3-0.7-0.3-1.4v-3.3h-0.8v-1.1
			h0.8v-1.7h1.6v1.7h0.9v1.1h-0.9v3.4c0,0.2,0,0.3,0.1,0.3s0.2,0.1,0.4,0.1h0.4V118.1z"/>
		<path class="st1" d="M223.2,116.2h1.6c-0.2,0.6-0.5,1.2-1,1.5s-1.1,0.5-1.8,0.5c-0.9,0-1.6-0.3-2.1-0.9c-0.5-0.6-0.8-1.4-0.8-2.4
			c0-1,0.3-1.8,0.8-2.4s1.2-0.9,2.1-0.9c0.9,0,1.7,0.3,2.2,0.9c0.5,0.6,0.8,1.4,0.8,2.4c0,0.1,0,0.2,0,0.3c0,0.1,0,0.1,0,0.2h-4.1
			c0,0.5,0.1,0.8,0.4,1.1c0.2,0.2,0.5,0.4,0.9,0.4c0.3,0,0.5-0.1,0.7-0.2S223.1,116.4,223.2,116.2z M220.8,114.3h2.4
			c0-0.4-0.1-0.7-0.3-0.9c-0.2-0.2-0.5-0.3-0.9-0.3c-0.4,0-0.6,0.1-0.8,0.3C221,113.6,220.9,113.9,220.8,114.3z"/>
		<path class="st1" d="M231.6,109.8v8.3h-1.6v-0.8c-0.2,0.4-0.5,0.6-0.8,0.8c-0.3,0.2-0.6,0.2-1,0.2c-0.8,0-1.4-0.3-1.8-0.9
			s-0.7-1.4-0.7-2.3c0-1,0.2-1.8,0.7-2.4c0.5-0.6,1.1-0.9,1.8-0.9c0.4,0,0.7,0.1,1.1,0.2c0.3,0.2,0.6,0.4,0.8,0.7v-2.9H231.6z
			 M227.3,114.9c0,0.6,0.1,1.1,0.3,1.4s0.6,0.5,1,0.5c0.4,0,0.8-0.2,1-0.5c0.2-0.3,0.3-0.8,0.3-1.4c0-0.6-0.1-1-0.4-1.3
			c-0.2-0.3-0.6-0.5-1-0.5c-0.4,0-0.7,0.2-1,0.5S227.3,114.4,227.3,114.9z"/>
		<path class="st1" d="M242.4,117.7c-0.3,0.2-0.6,0.3-1,0.4c-0.4,0.1-0.8,0.1-1.2,0.1c-1.2,0-2.2-0.4-2.9-1.2
			c-0.7-0.8-1.1-1.8-1.1-3.2c0-1.3,0.4-2.4,1.1-3.2c0.7-0.8,1.7-1.2,2.9-1.2c1.2,0,2.2,0.4,3,1.2c0.7,0.8,1.1,1.8,1.1,3.2
			c0,0.6-0.1,1.1-0.2,1.6c-0.2,0.5-0.4,0.9-0.7,1.3l0.9,0.9l-0.9,1L242.4,117.7z M241.2,116.6l-0.9-0.9l0.9-1l0.9,0.9
			c0.1-0.2,0.2-0.5,0.3-0.8c0.1-0.3,0.1-0.6,0.1-0.9c0-0.9-0.2-1.6-0.6-2.1c-0.4-0.5-1-0.8-1.7-0.8c-0.7,0-1.3,0.3-1.7,0.8
			c-0.4,0.5-0.6,1.2-0.6,2.1c0,0.9,0.2,1.6,0.6,2.1c0.4,0.5,1,0.8,1.7,0.8c0.2,0,0.4,0,0.5-0.1C240.9,116.7,241,116.6,241.2,116.6z"
			/>
		<path class="st1" d="M250.9,111.9v6.1h-1.6v-0.7c-0.2,0.3-0.5,0.5-0.8,0.7c-0.3,0.1-0.7,0.2-1,0.2c-0.7,0-1.2-0.2-1.5-0.5
			c-0.3-0.4-0.5-0.9-0.5-1.6v-4.2h1.6v3.7c0,0.4,0.1,0.7,0.2,0.9c0.1,0.2,0.4,0.3,0.7,0.3c0.4,0,0.7-0.1,0.9-0.3s0.3-0.5,0.3-0.9
			v-3.6H250.9z"/>
		<path class="st1" d="M255.8,117.3c-0.2,0.3-0.5,0.6-0.8,0.7c-0.3,0.2-0.7,0.2-1.2,0.2c-0.6,0-1-0.2-1.4-0.5
			c-0.3-0.3-0.5-0.8-0.5-1.4c0-0.6,0.2-1,0.5-1.3s0.8-0.5,1.6-0.6c0.2,0,0.4-0.1,0.7-0.1c0.7-0.1,1-0.3,1-0.6c0-0.2-0.1-0.4-0.2-0.5
			c-0.2-0.1-0.4-0.2-0.8-0.2c-0.3,0-0.6,0.1-0.8,0.2c-0.2,0.1-0.3,0.3-0.3,0.6v0.1h-1.5v-0.1c0-0.6,0.2-1.1,0.7-1.5
			c0.4-0.4,1.1-0.5,1.8-0.5c0.9,0,1.5,0.1,2,0.4s0.7,0.7,0.7,1.3v3.5c0,0.3,0,0.4,0.1,0.6c0.1,0.1,0.1,0.2,0.3,0.3v0.3H256
			c-0.1-0.1-0.1-0.2-0.1-0.3C255.8,117.6,255.8,117.4,255.8,117.3z M255.8,115c-0.3,0.1-0.6,0.2-0.9,0.3c-0.3,0.1-0.5,0.1-0.5,0.1
			c-0.3,0.1-0.5,0.2-0.6,0.3c-0.1,0.1-0.2,0.3-0.2,0.5c0,0.2,0.1,0.4,0.2,0.5c0.1,0.1,0.3,0.2,0.6,0.2c0.4,0,0.8-0.1,1-0.4
			s0.4-0.6,0.4-1V115z"/>
		<path class="st1" d="M258.8,118v-8.3h1.6v8.3H258.8z"/>
		<path class="st1" d="M262,111.3v-1.5h1.6v1.5H262z M262,118v-6.1h1.6v6.1H262z"/>
		<path class="st1" d="M267.8,118.1c-0.2,0-0.3,0-0.5,0c-0.2,0-0.3,0-0.4,0c-0.6,0-1.1-0.1-1.3-0.4s-0.3-0.7-0.3-1.4v-3.3h-0.8v-1.1
			h0.8v-1.7h1.6v1.7h0.9v1.1h-0.9v3.4c0,0.2,0,0.3,0.1,0.3s0.2,0.1,0.4,0.1h0.4V118.1z"/>
		<path class="st1" d="M269,120.5v-1.3c0.1,0,0.1,0,0.2,0c0.1,0,0.1,0,0.2,0c0.3,0,0.6-0.1,0.7-0.2c0.2-0.2,0.2-0.4,0.2-0.7
			c0,0,0-0.1,0-0.1c0,0,0-0.1,0-0.1l-2.2-6.2h1.8l1.3,4.4l1.3-4.4h1.7l-2.5,7.2c-0.2,0.5-0.4,0.9-0.7,1.1c-0.3,0.2-0.7,0.3-1.3,0.3
			c-0.1,0-0.2,0-0.3,0C269.2,120.5,269.1,120.5,269,120.5z"/>
	</g>
	<g class="st2">
		<path class="st1" d="M279.5,118v-1.3h1.2v1.3H279.5z"/>
		<path class="st1" d="M282.6,118v-1.3h1.2v1.3H282.6z"/>
		<path class="st1" d="M285.8,118v-1.3h1.2v1.3H285.8z"/>
		<path class="st1" d="M288.8,118v-8.3h3.2c1.2,0,2,0.3,2.7,1c0.6,0.7,0.9,1.7,0.9,3c0,1.3-0.3,2.4-1,3.1c-0.6,0.7-1.5,1.1-2.7,1.1
			H288.8z M291.9,110.7h-1.9v6.3h1.9c0.8,0,1.5-0.3,1.9-0.8c0.4-0.5,0.6-1.3,0.6-2.4c0-1-0.2-1.8-0.6-2.3
			C293.3,111,292.7,110.7,291.9,110.7z"/>
		<path class="st1" d="M300.9,116.1h1c-0.1,0.7-0.4,1.2-0.9,1.6c-0.5,0.4-1.1,0.6-1.8,0.6c-0.8,0-1.5-0.3-2-0.8s-0.7-1.3-0.7-2.3
			c0-1,0.2-1.8,0.7-2.4s1.1-0.9,2-0.9c0.9,0,1.5,0.3,2,0.8c0.5,0.5,0.7,1.3,0.7,2.3c0,0.1,0,0.2,0,0.3c0,0.1,0,0.1,0,0.2h-4.3
			c0,0.6,0.2,1.1,0.5,1.5s0.7,0.5,1.3,0.5c0.4,0,0.8-0.1,1-0.3C300.6,116.8,300.8,116.5,300.9,116.1z M297.6,114.5h3.3
			c0-0.6-0.1-1-0.4-1.3c-0.3-0.3-0.7-0.5-1.2-0.5c-0.5,0-0.9,0.2-1.2,0.5C297.8,113.5,297.6,113.9,297.6,114.5z"/>
		<path class="st1" d="M303.1,118v-8.3h1v8.3H303.1z"/>
		<path class="st1" d="M305.7,110.9v-1.2h1v1.2H305.7z M305.7,118v-6h1v6H305.7z"/>
		<path class="st1" d="M309.7,118l-2.2-6h1.1l1.7,4.8l1.6-4.8h1.1l-2.2,6H309.7z"/>
		<path class="st1" d="M317.9,116.1h1c-0.1,0.7-0.4,1.2-0.9,1.6c-0.5,0.4-1.1,0.6-1.8,0.6c-0.8,0-1.5-0.3-2-0.8s-0.7-1.3-0.7-2.3
			c0-1,0.2-1.8,0.7-2.4c0.5-0.6,1.1-0.9,2-0.9c0.9,0,1.5,0.3,2,0.8c0.5,0.5,0.7,1.3,0.7,2.3c0,0.1,0,0.2,0,0.3c0,0.1,0,0.1,0,0.2
			h-4.3c0,0.6,0.2,1.1,0.5,1.5s0.7,0.5,1.3,0.5c0.4,0,0.8-0.1,1-0.3C317.6,116.8,317.8,116.5,317.9,116.1z M314.6,114.5h3.3
			c0-0.6-0.1-1-0.4-1.3c-0.3-0.3-0.7-0.5-1.2-0.5c-0.5,0-0.9,0.2-1.2,0.5C314.8,113.5,314.6,113.9,314.6,114.5z"/>
		<path class="st1" d="M320.1,118v-6h1v1.1c0.2-0.4,0.4-0.7,0.7-0.9c0.3-0.2,0.6-0.3,1-0.3c0.1,0,0.1,0,0.2,0c0,0,0.1,0,0.1,0v1.1
			c0,0-0.1,0-0.1,0c0,0-0.1,0-0.2,0c-0.5,0-1,0.1-1.2,0.4s-0.4,0.7-0.4,1.3v3.4H320.1z"/>
		<path class="st1" d="M328,116.1h1c-0.1,0.7-0.4,1.2-0.9,1.6c-0.5,0.4-1.1,0.6-1.8,0.6c-0.8,0-1.5-0.3-2-0.8s-0.7-1.3-0.7-2.3
			c0-1,0.2-1.8,0.7-2.4s1.1-0.9,2-0.9c0.9,0,1.5,0.3,2,0.8c0.5,0.5,0.7,1.3,0.7,2.3c0,0.1,0,0.2,0,0.3c0,0.1,0,0.1,0,0.2h-4.3
			c0,0.6,0.2,1.1,0.5,1.5s0.7,0.5,1.3,0.5c0.4,0,0.8-0.1,1-0.3C327.7,116.8,327.9,116.5,328,116.1z M324.7,114.5h3.3
			c0-0.6-0.1-1-0.4-1.3c-0.3-0.3-0.7-0.5-1.2-0.5c-0.5,0-0.9,0.2-1.2,0.5C324.9,113.5,324.8,113.9,324.7,114.5z"/>
		<path class="st1" d="M335.5,109.8v8.3h-1v-0.8c-0.3,0.3-0.6,0.6-0.9,0.7s-0.7,0.2-1.1,0.2c-0.8,0-1.4-0.3-1.9-0.9
			s-0.7-1.3-0.7-2.3c0-1,0.2-1.8,0.7-2.4c0.5-0.6,1.1-0.9,1.9-0.9c0.4,0,0.8,0.1,1.1,0.2c0.3,0.2,0.6,0.4,0.8,0.7v-3H335.5z
			 M334.6,115c0-0.7-0.2-1.3-0.5-1.7c-0.3-0.4-0.7-0.6-1.3-0.6c-0.6,0-1,0.2-1.3,0.6c-0.3,0.4-0.5,1-0.5,1.8c0,0.7,0.2,1.2,0.5,1.6
			c0.3,0.4,0.8,0.6,1.3,0.6c0.6,0,1-0.2,1.3-0.6C334.4,116.3,334.6,115.7,334.6,115z"/>
	</g>
</g>
</svg>
