<?xml version="1.0" encoding="utf-8"?>
<!-- Generator: Adobe Illustrator 26.0.3, SVG Export Plug-In . SVG Version: 6.00 Build 0)  -->
<svg version="1.1" id="Layer_1" xmlns="http://www.w3.org/2000/svg" xmlns:xlink="http://www.w3.org/1999/xlink" x="0px" y="0px"
	 viewBox="0 0 240.1 60" style="enable-background:new 0 0 240.1 60;" xml:space="preserve">
<style type="text/css">
	.st0{opacity:0.17;}
	.st1{clip-path:url(#SVGID_00000121280376808173166660000014210181644071494590_);}
	.st2{fill:url(#SVGID_00000152948566164756220490000014421416953968964795_);}
	.st3{enable-background:new    ;}
</style>
<g class="st0">
	<g>
		<g>
			<defs>
				<rect id="SVGID_1_" x="463.5" y="-1896.7" width="1920" height="1262.8"/>
			</defs>
			<clipPath id="SVGID_00000062902233504898561910000004577306280976382351_">
				<use xlink:href="#SVGID_1_"  style="overflow:visible;"/>
			</clipPath>
			<g style="clip-path:url(#SVGID_00000062902233504898561910000004577306280976382351_);">
				
					<linearGradient id="SVGID_00000128445354163817660390000011879899899066119836_" gradientUnits="userSpaceOnUse" x1="99.2001" y1="130.3502" x2="1130.8112" y2="130.3502" gradientTransform="matrix(1 0 0 1 0 -706)">
					<stop  offset="5.192782e-07" style="stop-color:#D9E021"/>
					<stop  offset="2.585238e-02" style="stop-color:#CBE230"/>
					<stop  offset="0.1203" style="stop-color:#9CE960"/>
					<stop  offset="0.2201" style="stop-color:#72EF8B"/>
					<stop  offset="0.3235" style="stop-color:#4FF4AF"/>
					<stop  offset="0.4316" style="stop-color:#32F8CC"/>
					<stop  offset="0.546" style="stop-color:#1CFBE2"/>
					<stop  offset="0.6694" style="stop-color:#0CFDF3"/>
					<stop  offset="0.8085" style="stop-color:#03FFFC"/>
					<stop  offset="0.996" style="stop-color:#00FFFF"/>
				</linearGradient>
				<path style="fill:url(#SVGID_00000128445354163817660390000011879899899066119836_);" d="M993.7,213.4
					c-111.6-24.5-218.9-68.6-315.4-129.8c-89.1-56.5-184.4-131.7-244-220.1c-21-31.1-36.4-66.2-39.2-104c-0.4-5.6-0.7-11-0.7-16.7
					c0-57,24.5-112.3,66.8-150.6c16.8-15.3,36.4-27.2,57.2-36.9c66.3-31.1,137.6-49.4,208.8-65.7c72.8-16.7,145.9-31.4,220-41.1
					c6-0.8,39.9-9,43.6-5.3l109.6,108.7c0,0,92.3-169.4-44.7-325.9l-40.8-41.3l-361.5-361.3l-100.1-100.1c-2.8-3.2-5.4-6.1-8.4-9.1
					l-8.9-8.9c-3-3-5.9-5.6-9.1-8.4c0,0-5.2-5.2-5.6-5.6c-2.2-1.9-4.5-3.5-6.9-5.2c-1.1-0.9-2.2-1.7-3.3-2.6
					c-0.7-0.6-1.7-1.1-2.6-1.9c-1.1-0.7-2.2-1.7-3.5-2.4c-2.8-2-5.6-3.9-8.5-5.6c-0.6-0.4-1.3-0.7-1.9-1.1
					c-4.3-2.8-8.7-5.2-13.2-7.6c-0.9-0.6-2-1.1-3-1.7c-15.2-8-31.2-14.7-48.1-19.5c-10.4-3-21-5.4-32-7.1c-13.2-2-26.6-3.2-40.5-3.2
					c-134.1,0-244.3,102.2-257.1,233.1c-0.9,8.5-1.5,17.5-1.5,26.2v1067c0,10,0.6,19.9,1.9,29.7c8.7,76.5,51.5,142.9,112.8,183.3
					c6.1,4.3,12.6,8.2,19.1,11.7c21.9,11.7,45.5,20.6,70.6,25.6c0.6,0.2,1.1,0.2,1.7,0.4c3.5,0.7,7.2,1.3,10.8,1.9
					c12.8,2,25.8,3,39,3c0,0,621.3,0,638.9,0C993.9,214.8,993.7,214.1,993.7,213.4z"/>
			</g>
		</g>
	</g>
</g>
<g>
	<g>
		<g class="st3">
			<path d="M165.4,53.5h-3.1l-0.8,2.4h-1.1l2.9-8h1.3l2.8,8h-1.1L165.4,53.5z M165.1,52.6l-1.2-3.7l-1.3,3.7H165.1z"/>
			<path d="M168.1,47.9h0.9v3c0.4-0.6,1-0.9,1.8-0.9c0.3,0,0.7,0.1,1,0.2c0.3,0.1,0.6,0.3,0.8,0.5c0.5,0.5,0.7,1.3,0.7,2.3
				c0,0.9-0.2,1.7-0.7,2.3c-0.2,0.3-0.5,0.5-0.8,0.7s-0.7,0.2-1,0.2c-0.8,0-1.4-0.3-1.8-1v0.7h-0.8L168.1,47.9L168.1,47.9z
				 M170.6,50.8c-0.2,0-0.5,0.1-0.7,0.2c-0.2,0.1-0.4,0.3-0.5,0.5c-0.3,0.4-0.4,0.9-0.4,1.6c0,0.6,0.1,1.1,0.4,1.6
				c0.3,0.4,0.7,0.7,1.2,0.7s1-0.2,1.3-0.7c0.3-0.4,0.4-0.9,0.4-1.6c0-0.6-0.1-1.2-0.4-1.6C171.6,51,171.2,50.8,170.6,50.8z"/>
			<path d="M175.3,47.9v8h-0.9v-8H175.3z"/>
			<path d="M181.7,53.3h-4.3c0,0.5,0.1,0.9,0.3,1.2c0.3,0.5,0.8,0.7,1.4,0.7c0.7,0,1.3-0.4,1.5-1.2h0.9c-0.1,0.5-0.3,0.9-0.5,1.2
				c-0.5,0.5-1.1,0.8-1.9,0.8c-0.8,0-1.5-0.3-1.9-0.8c-0.5-0.5-0.7-1.3-0.7-2.2c0-1,0.2-1.8,0.8-2.3c0.5-0.5,1.1-0.8,1.9-0.8
				c0.6,0,1.2,0.2,1.6,0.5c0.5,0.4,0.8,1.1,0.9,1.9C181.7,52.7,181.7,53,181.7,53.3z M180.8,52.6c0-0.3,0-0.5-0.1-0.8
				s-0.3-0.6-0.6-0.8c-0.2-0.2-0.5-0.2-0.9-0.2c-0.6,0-1.1,0.3-1.4,0.8c-0.2,0.3-0.3,0.6-0.3,1H180.8z"/>
			<path d="M184.3,54.7v1.1h-1.1v-1.1H184.3z"/>
			<path d="M192.2,48.8v7.1h-1v-7.1h-2.6v-0.9h6.3v0.9H192.2z"/>
			<path d="M194.8,50.1h0.8v1c0.2-0.3,0.4-0.6,0.6-0.8c0.3-0.3,0.6-0.4,1-0.4c0.1,0,0.2,0,0.3,0v0.9c-0.5,0-0.9,0.1-1.2,0.3
				c-0.2,0.2-0.4,0.4-0.5,0.7s-0.2,0.6-0.2,1v3h-0.9L194.8,50.1L194.8,50.1z"/>
			<path d="M203.5,55.3V56c-0.3,0.1-0.5,0.1-0.6,0.1c-0.4,0-0.7-0.1-0.8-0.4c-0.1-0.1-0.1-0.3-0.1-0.5c-0.3,0.3-0.6,0.5-0.8,0.6
				c-0.3,0.2-0.7,0.2-1.1,0.2c-0.6,0-1.1-0.2-1.4-0.5c-0.3-0.3-0.5-0.7-0.5-1.2c0-0.7,0.3-1.3,1-1.5c0.2-0.1,0.6-0.2,1-0.2
				c0.1,0,0.3,0,0.8-0.1c0.4-0.1,0.7-0.1,0.8-0.2c0.1-0.1,0.2-0.2,0.2-0.4v-0.2c0-0.6-0.4-0.9-1.3-0.9c-0.5,0-0.9,0.1-1.1,0.4
				c-0.1,0.2-0.2,0.4-0.2,0.6h-0.9c0-0.5,0.2-0.9,0.4-1.2c0.4-0.5,1-0.7,1.9-0.7c0.6,0,1.1,0.1,1.5,0.3s0.7,0.7,0.7,1.2v3.4
				C203,55.1,203.2,55.3,203.5,55.3C203.4,55.4,203.4,55.4,203.5,55.3z M201.9,53c-0.2,0.1-0.3,0.1-0.5,0.2c-0.2,0-0.5,0.1-0.9,0.2
				c-0.5,0.1-0.8,0.2-1,0.3c-0.2,0.2-0.3,0.4-0.3,0.7s0.1,0.5,0.3,0.6c0.2,0.2,0.5,0.3,0.9,0.3c0.5,0,1-0.2,1.4-0.5
				c0.2-0.2,0.3-0.3,0.3-0.5c0-0.1,0-0.2,0-0.3v-1H201.9z"/>
			<path d="M204.5,50.1h0.8v1c0.2-0.3,0.4-0.6,0.6-0.7c0.4-0.3,0.8-0.4,1.3-0.4s0.9,0.1,1.2,0.3c0.4,0.3,0.6,0.7,0.6,1.2v4.4h-0.9
				v-4c0-0.4-0.1-0.7-0.4-0.9c-0.2-0.2-0.5-0.3-0.8-0.3c-0.4,0-0.8,0.2-1.1,0.5s-0.5,0.8-0.5,1.5v3.2h-0.9L204.5,50.1L204.5,50.1z"
				/>
			<path d="M214.7,51.7h-1c0-0.3-0.1-0.5-0.3-0.7s-0.5-0.2-0.8-0.2s-0.6,0.1-0.9,0.2c-0.2,0.1-0.4,0.4-0.4,0.7
				c0,0.2,0.1,0.4,0.3,0.5s0.5,0.2,0.8,0.3l0.9,0.2c0.5,0.1,0.9,0.3,1.2,0.5c0.3,0.3,0.5,0.6,0.5,1.1c0,0.6-0.2,1-0.7,1.4
				c-0.4,0.3-1,0.5-1.7,0.5c-1.5,0-2.3-0.7-2.3-2h1c0.1,0.4,0.1,0.6,0.3,0.7c0.2,0.3,0.6,0.4,1.1,0.4c0.4,0,0.7-0.1,0.9-0.2
				c0.3-0.2,0.4-0.4,0.4-0.7c0-0.2-0.1-0.4-0.2-0.5c-0.1-0.1-0.3-0.2-0.7-0.3l-0.9-0.2c-0.7-0.2-1.1-0.4-1.4-0.6
				c-0.3-0.3-0.4-0.6-0.4-1.1c0-0.6,0.2-1,0.6-1.3c0.4-0.3,0.9-0.5,1.6-0.5c0.8,0,1.4,0.2,1.7,0.6C214.6,50.9,214.7,51.3,214.7,51.7
				z"/>
			<path d="M218.2,50.1v0.7h-1v5h-0.9v-5h-0.8v-0.7h0.8v-1c0-0.4,0.1-0.8,0.4-1c0.2-0.2,0.6-0.3,0.9-0.3c0.2,0,0.3,0,0.5,0.1v0.8
				c-0.2,0-0.3,0-0.3,0c-0.4,0-0.6,0.2-0.6,0.6v0.9L218.2,50.1L218.2,50.1z"/>
			<path d="M221.3,50c0.8,0,1.5,0.3,1.9,0.9c0.4,0.5,0.7,1.3,0.7,2.2s-0.2,1.7-0.7,2.2c-0.5,0.6-1.1,0.9-2,0.9c-0.8,0-1.5-0.3-2-0.9
				c-0.4-0.5-0.7-1.3-0.7-2.2c0-1,0.2-1.7,0.7-2.2C219.8,50.2,220.5,50,221.3,50z M221.3,50.8c-0.4,0-0.7,0.1-1,0.4
				c-0.4,0.4-0.6,1-0.6,1.9c0,0.6,0.1,1.1,0.3,1.5c0.1,0.2,0.3,0.4,0.5,0.5s0.5,0.2,0.8,0.2c0.4,0,0.7-0.1,1-0.4
				c0.4-0.4,0.6-1,0.6-1.8c0-0.6-0.1-1.1-0.3-1.5C222.3,51.1,221.9,50.8,221.3,50.8z"/>
			<path d="M225.2,50.1h0.8v1c0.2-0.3,0.4-0.6,0.6-0.8c0.3-0.3,0.6-0.4,1-0.4c0.1,0,0.2,0,0.3,0v0.9c-0.5,0-0.9,0.1-1.2,0.3
				c-0.2,0.2-0.4,0.4-0.5,0.7s-0.2,0.6-0.2,1v3h-0.9L225.2,50.1L225.2,50.1z"/>
			<path d="M228.8,50.1h0.8v0.8c0.2-0.3,0.4-0.5,0.6-0.7c0.3-0.2,0.7-0.3,1.1-0.3c0.5,0,0.9,0.1,1.2,0.4c0.1,0.1,0.3,0.3,0.4,0.5
				c0.2-0.2,0.4-0.4,0.5-0.5c0.3-0.2,0.7-0.3,1.2-0.3c0.6,0,1,0.2,1.3,0.5s0.4,0.6,0.4,1.1v4.3h-0.9v-4c0-0.4-0.1-0.7-0.3-0.9
				s-0.5-0.3-0.8-0.3c-0.4,0-0.7,0.2-1,0.5s-0.4,0.6-0.4,1.1v3.6H232v-4c0-0.4-0.1-0.7-0.3-0.9s-0.5-0.3-0.8-0.3
				c-0.4,0-0.7,0.2-1,0.5s-0.4,0.6-0.4,1.1v3.6h-0.9v-5.8H228.8z"/>
		</g>
	</g>
	<g>
		<g class="st3">
			<path d="M56.8,44.2V18.4h5.1L68,36.7c0.6,1.7,1,3,1.2,3.8c0.3-0.9,0.8-2.3,1.4-4.1l6.2-18h4.6v25.8h-3.3V22.6l-7.5,21.6h-3.1
				l-7.5-22v22H56.8z"/>
			<path d="M97.8,41.9c-1.2,1-2.3,1.7-3.4,2.1c-1.1,0.4-2.3,0.6-3.5,0.6c-2.1,0-3.6-0.5-4.7-1.5s-1.7-2.3-1.7-3.8
				c0-0.9,0.2-1.8,0.6-2.5c0.4-0.8,1-1.4,1.6-1.8c0.7-0.5,1.4-0.8,2.3-1c0.6-0.2,1.6-0.3,2.8-0.5c2.6-0.3,4.4-0.7,5.7-1.1
				c0-0.4,0-0.7,0-0.8c0-1.3-0.3-2.2-0.9-2.7c-0.8-0.7-2-1.1-3.6-1.1c-1.5,0-2.6,0.3-3.3,0.8C89,29,88.5,30,88.1,31.3L85,30.9
				c0.3-1.3,0.7-2.4,1.4-3.2s1.6-1.4,2.8-1.9s2.6-0.7,4.2-0.7s2.9,0.2,3.9,0.6s1.7,0.8,2.2,1.4s0.8,1.3,1,2.2
				c0.1,0.5,0.2,1.5,0.2,2.9v4.2c0,2.9,0.1,4.8,0.2,5.6s0.4,1.5,0.8,2.2h-3.3C98.1,43.6,97.9,42.8,97.8,41.9z M97.5,34.8
				c-1.2,0.5-2.9,0.9-5.2,1.2c-1.3,0.2-2.2,0.4-2.8,0.6c-0.5,0.2-1,0.6-1.3,1c-0.3,0.5-0.4,1-0.4,1.5c0,0.8,0.3,1.6,1,2.1
				c0.6,0.6,1.6,0.8,2.8,0.8c1.2,0,2.3-0.3,3.3-0.8s1.6-1.3,2.1-2.2c0.3-0.7,0.5-1.8,0.5-3.2V34.8z"/>
			<path d="M104.7,44.2V18.4h3.2v9.3c1.5-1.7,3.3-2.6,5.6-2.6c1.4,0,2.6,0.3,3.6,0.8s1.8,1.3,2.2,2.3s0.7,2.4,0.7,4.2v11.9h-3.2
				V32.4c0-1.6-0.3-2.7-1-3.5c-0.7-0.7-1.7-1.1-2.9-1.1c-0.9,0-1.8,0.2-2.7,0.7s-1.4,1.1-1.8,2c-0.4,0.8-0.5,2-0.5,3.5v10.2H104.7z"
				/>
			<path d="M136,41.9c-1.2,1-2.3,1.7-3.4,2.1c-1.1,0.4-2.3,0.6-3.5,0.6c-2.1,0-3.6-0.5-4.7-1.5s-1.7-2.3-1.7-3.8
				c0-0.9,0.2-1.8,0.6-2.5c0.4-0.8,1-1.4,1.6-1.8c0.7-0.5,1.4-0.8,2.3-1c0.6-0.2,1.6-0.3,2.8-0.5c2.6-0.3,4.4-0.7,5.7-1.1
				c0-0.4,0-0.7,0-0.8c0-1.3-0.3-2.2-0.9-2.7c-0.8-0.7-2-1.1-3.6-1.1c-1.5,0-2.6,0.3-3.3,0.8s-1.2,1.4-1.6,2.8l-3.1-0.4
				c0.3-1.3,0.7-2.4,1.4-3.2c0.6-0.8,1.6-1.4,2.8-1.9s2.6-0.7,4.2-0.7s2.9,0.2,3.9,0.6s1.7,0.8,2.2,1.4s0.8,1.3,1,2.2
				c0.1,0.5,0.2,1.5,0.2,2.9v4.2c0,2.9,0.1,4.8,0.2,5.6c0.1,0.8,0.4,1.5,0.8,2.2h-3.3C136.3,43.6,136.1,42.8,136,41.9z M135.7,34.8
				c-1.2,0.5-2.9,0.9-5.2,1.2c-1.3,0.2-2.2,0.4-2.8,0.6c-0.5,0.2-1,0.6-1.3,1c-0.3,0.5-0.4,1-0.4,1.5c0,0.8,0.3,1.6,1,2.1
				c0.6,0.6,1.6,0.8,2.8,0.8s2.3-0.3,3.3-0.8s1.7-1.3,2.1-2.2c0.3-0.7,0.5-1.8,0.5-3.2V34.8z"/>
			<path d="M141.6,38.6l3.1-0.5c0.2,1.3,0.7,2.2,1.5,2.9s1.9,1,3.4,1s2.5-0.3,3.2-0.9c0.7-0.6,1.1-1.3,1.1-2.1
				c0-0.7-0.3-1.3-0.9-1.7c-0.4-0.3-1.5-0.6-3.2-1.1c-2.3-0.6-3.9-1.1-4.8-1.5c-0.9-0.4-1.6-1-2-1.8s-0.7-1.6-0.7-2.5
				c0-0.8,0.2-1.6,0.6-2.3s0.9-1.3,1.6-1.8c0.5-0.4,1.2-0.7,2-0.9c0.9-0.3,1.8-0.4,2.7-0.4c1.5,0,2.8,0.2,3.9,0.6s1.9,1,2.5,1.7
				c0.5,0.7,0.9,1.7,1.1,2.9l-3.1,0.4c-0.1-1-0.5-1.7-1.2-2.3s-1.6-0.8-2.9-0.8c-1.5,0-2.5,0.2-3.1,0.7s-0.9,1-0.9,1.7
				c0,0.4,0.1,0.8,0.4,1.1c0.3,0.3,0.7,0.6,1.2,0.8c0.3,0.1,1.3,0.4,2.8,0.8c2.2,0.6,3.8,1.1,4.7,1.5s1.6,0.9,2.1,1.7
				c0.5,0.7,0.8,1.6,0.8,2.7c0,1.1-0.3,2.1-0.9,3c-0.6,0.9-1.5,1.7-2.7,2.2s-2.5,0.8-3.9,0.8c-2.4,0-4.3-0.5-5.6-1.5
				C142.8,42.1,141.9,40.6,141.6,38.6z"/>
			<path d="M172.1,41.9c-1.2,1-2.3,1.7-3.4,2.1c-1.1,0.4-2.3,0.6-3.5,0.6c-2.1,0-3.6-0.5-4.7-1.5c-1.1-1-1.7-2.3-1.7-3.8
				c0-0.9,0.2-1.8,0.6-2.5c0.4-0.8,1-1.4,1.6-1.8c0.7-0.5,1.4-0.8,2.3-1c0.6-0.2,1.6-0.3,2.8-0.5c2.6-0.3,4.4-0.7,5.7-1.1
				c0-0.4,0-0.7,0-0.8c0-1.3-0.3-2.2-0.9-2.7c-0.8-0.7-2-1.1-3.6-1.1c-1.5,0-2.6,0.3-3.3,0.8s-1.2,1.4-1.6,2.8l-3.1-0.4
				c0.3-1.3,0.7-2.4,1.4-3.2c0.6-0.8,1.6-1.4,2.8-1.9s2.6-0.7,4.2-0.7c1.6,0,2.9,0.2,3.9,0.6s1.7,0.8,2.2,1.4s0.8,1.3,1,2.2
				c0.1,0.5,0.2,1.5,0.2,2.9v4.2c0,2.9,0.1,4.8,0.2,5.6c0.1,0.8,0.4,1.5,0.8,2.2h-3.3C172.4,43.6,172.2,42.8,172.1,41.9z
				 M171.9,34.8c-1.2,0.5-2.9,0.9-5.2,1.2c-1.3,0.2-2.2,0.4-2.8,0.6c-0.5,0.2-1,0.6-1.3,1c-0.3,0.5-0.4,1-0.4,1.5
				c0,0.8,0.3,1.6,1,2.1c0.6,0.6,1.6,0.8,2.8,0.8s2.3-0.3,3.3-0.8s1.7-1.3,2.1-2.2c0.3-0.7,0.5-1.8,0.5-3.2L171.9,34.8L171.9,34.8z"
				/>
			<path d="M179,44.2V18.4h3.2v14.7l7.5-7.6h4.1l-7.2,6.9l7.9,11.8h-3.9l-6.2-9.6l-2.2,2.1v7.4H179V44.2z"/>
			<path d="M203,41.4l0.5,2.8c-0.9,0.2-1.7,0.3-2.4,0.3c-1.2,0-2-0.2-2.7-0.5c-0.6-0.4-1.1-0.8-1.3-1.4c-0.3-0.6-0.4-1.8-0.4-3.7V28
				h-2.3v-2.5h2.3v-4.6l3.2-1.9v6.5h3.2V28h-3.2v10.9c0,0.9,0.1,1.5,0.2,1.7c0.1,0.3,0.3,0.5,0.5,0.6c0.3,0.2,0.6,0.2,1.1,0.2
				C202,41.5,202.4,41.5,203,41.4z"/>
			<path d="M205.1,44.2V18.4h3.2v9.3c1.5-1.7,3.3-2.6,5.6-2.6c1.4,0,2.6,0.3,3.6,0.8s1.8,1.3,2.2,2.3s0.7,2.4,0.7,4.2v11.9h-3.2
				V32.4c0-1.6-0.3-2.7-1-3.5c-0.7-0.7-1.7-1.1-2.9-1.1c-0.9,0-1.8,0.2-2.7,0.7s-1.4,1.1-1.8,2c-0.4,0.8-0.5,2-0.5,3.5v10.2H205.1z"
				/>
			<path d="M224.3,22.1v-3.6h3.2v3.6H224.3z M224.3,44.2V25.5h3.2v18.7H224.3z"/>
		</g>
	</g>
	<g>
		<g>
			<path d="M43.7,38.6V19.2c0-0.1,0-0.1,0-0.2s0-0.2,0-0.3c0-0.1,0-0.2,0-0.4c0,0,0,0,0-0.1c-0.1-0.6-0.3-1.2-0.7-1.7
				c0-0.1-0.1-0.1-0.1-0.2c-0.4-0.5-0.8-0.9-1.3-1.2c-0.1,0-0.1-0.1-0.2-0.1c-0.1-0.1-0.2-0.1-0.3-0.2c-0.3-0.1-0.6-0.2-0.9-0.3
				c-0.4-0.1-0.8-0.2-1.3-0.2c-0.1,0-0.3,0-0.4,0c-0.5,0-0.9,0.2-1.4,0.3c-0.5,0.2-1,0.5-1.4,0.9l0,0l-0.2,0.2l-0.2,0.2l-0.7,0.7
				L34.2,17l-4.3,4.3c0,0,0,0,0,0.1c0,0.2,0,0.5,0,0.7c0,0.3,0,0.6,0,0.9c0,1.5-0.2,2.9-0.5,4.3c-0.1,0.3-0.1,0.5-0.2,0.8
				c-0.2,0.6-0.3,1.1-0.6,1.6l0,0c0.1,0,0.3,0,0.4,0.1h0.1c1.3,0.2,2.5,0.5,3.7,0.8c1.2,0.3,2.3,0.7,3.3,1.4
				c0.2,0.2,0.4,0.4,0.6,0.6c0.5,0.7,0.8,1.5,0.8,2.4c0,2.1-2,3.8-3.4,5c-2.2,1.8-4.8,3.1-7.7,3.7c0,0,0,0,0,0.1H39
				c2.2,0,3.9-1.5,4.6-3.4C43.7,39.9,43.7,39.4,43.7,38.6z"/>
			<path d="M28.2,23.1c0,1.5-0.2,2.9-0.7,4.3c-1,2.5-2.9,4.6-5.3,5.7c0,0-0.1,0,0,0c0.5-0.5,2.3-4.6-1.7-11.5
				c-2.7-4.7-4.8-10.8-2-15.7c1.1-2,2.9-3.6,5-4.6c0,0,0.1,0,0,0c-0.3,0.4-0.5,1.7-0.6,2c-0.4,1.7-0.4,4.3,2.6,10
				C27,16.4,28.2,19.7,28.2,23.1z"/>
			<path d="M18.6,43.8c-2.1-0.5-4.1-1.3-5.9-2.4c-1.7-1.1-3.4-2.5-4.5-4.1c-0.4-0.6-0.7-1.2-0.7-1.9c0-0.1,0-0.2,0-0.3
				C7.5,34,8,33,8.7,32.3C9,32,9.4,31.8,9.8,31.6c1.2-0.6,2.6-0.9,3.9-1.2c1.4-0.3,2.7-0.6,4.1-0.8c0.1,0,0.7-0.2,0.8-0.1l2,2
				c0,0,1.7-3.2-0.8-6.1L19,24.6l-6.7-6.7L10.4,16c-0.1-0.1-0.1-0.1-0.2-0.2L10,15.6c-0.1-0.1-0.1-0.1-0.2-0.2l-0.1-0.1l-0.1-0.1
				c0,0,0,0-0.1,0l0,0c0,0,0,0-0.1,0s-0.1-0.1-0.2-0.1l0,0C9.2,15,9.1,15,9.1,15s0,0-0.1,0c-0.3-0.1-0.6-0.3-0.9-0.4
				c-0.2-0.1-0.4-0.1-0.6-0.1S7,14.4,6.7,14.4c-2.5,0-4.5,1.9-4.8,4.3c0,0.2,0,0.3,0,0.5v19.9c0,0.2,0,0.4,0,0.6
				c0.2,1.4,1,2.7,2.1,3.4c0.1,0.1,0.2,0.2,0.4,0.2c0.4,0.2,0.8,0.4,1.3,0.5l0,0c0.1,0,0.1,0,0.2,0c0.2,0,0.5,0.1,0.7,0.1
				C6.7,43.8,18.3,43.8,18.6,43.8L18.6,43.8z"/>
		</g>
	</g>
</g>
</svg>
